<?xml version="1.0" encoding="UTF-8"?>
<svg xmlns="http://www.w3.org/2000/svg" version="1.1" viewBox="0 0 1332.15 1687.55">
  <!-- Generator: Adobe Illustrator 29.1.0, SVG Export Plug-In . SVG Version: 2.1.0 Build 142)  -->
  <defs>
     <style>
      .st0 {
    stroke-width: 5px;
    fill: none;
    stroke: #000;
    stroke-linecap: round;
    stroke-linejoin: round;
  }

  .st1 {
    stroke-width: 5px;
    fill: none;
    stroke: #000;
    stroke-linecap: round;
    stroke-linejoin: round;
    stroke-dasharray: 12;
  }

  .st2 {
    stroke-width: 3px;
    fill: none;
    stroke: #000;
    stroke-linecap: round;
    stroke-linejoin: round;
  }

  .st3 {
    stroke-width: 6px;
    fill: none;
    stroke: #000;
    stroke-linecap: round;
    stroke-linejoin: round;
  }
    </style>
  </defs>
    <g id="LEFT_SLEEVE">
      <path class="st3" data-role="fill" d="M1184,501.22c30.63,84.26,56.68,203.75,56.68,203.75-90.13,73.75-223.74,68.53-231.01,68.18l.02-.27c-13.76-94.48-4.45-198.85-2.41-219.12,1.74.17,3.61-.85,3.85-3.2l1.65-22.8c22.99-93.75,74.13-229.37,84.8-257.3,38.57,42.59,58.3,153.45,86.42,230.76Z"/>
      <path class="st1" data-role="fill" d="M1225.06,683.69s-72.17,53.79-208.68,58.21"/>
      <path class="st1" data-role="fill" d="M1218.59,671.44s-62.98,49.7-205.62,55.14"/>
  </g>
  <g id="RIGHT_SLEEVE">
      <path class="st3" data-role="fill" d="M309.39,553.76c2.04,20.28,11.34,124.65-2.42,219.12-140.93,3.07-231.31-63.32-231.31-63.32,76.59-280.34,141.44-444.25,141.44-444.25,0,0,61.02,157.42,86.78,262.39l1.65,22.86c.25,2.37,2.12,3.38,3.86,3.2Z"/>
      <path class="st1" data-role="fill" d="M91.15,683.69s72.17,53.79,208.68,58.21"/>
      <path class="st1" data-role="fill" d="M97.61,671.44s62.98,49.7,205.62,55.14"/>
  </g>
  <g id="TORSO">
    <path class="st3" data-role="fill" d="M804.56,187.98c.31-.17,4.1-2.98,7.58-5.76,2.95-2.34,5.67-4.66,8.18-6.94,2.16-1.96,4.16-3.88,6.02-5.76,2.66-2.69,5.02-5.28,7.09-7.71,2.45-2.86,4.51-5.51,6.23-7.88,5.12-7.08,7.18-11.64,7.18-11.64l3.15-5.36c68.47,33.45,202.88,100.09,236.73,123.78,3.78,2.65,7.4,5.92,10.86,9.75-7.48,19.58-34.86,92.1-58.47,166.01,0,0-34.92,107.24-34.25,146.8h0c-2.83,42.35-5.49,118.76,4.83,189.61l-.02.27c-.21,0-.31-.01-.31-.01v147.83c0,82.72-.77,157.02.76,243.57,1.54,86.56-1.53,208.34,3.07,264.26,4.59,55.91,0,101.87,0,101.87-398.3,93.45-709.28,0-709.28,0,0,0-10.72-56.68,1.53-105.7.09-.36.18-.72.27-1.1.8-3.5,1.25-7.07,1.42-10.66l4.9-100.28c.91-99.81-3.06-238.43-5.06-321.49-3.06-127.15,0-218.56,0-218.56,9.99-68.56,7.83-142.33,5.11-185.39-.26-46.83-32.84-145.74-32.84-145.74-27.99-88.34-62.14-176.44-62.14-176.44l227.37-123.02s2.8,5.36,9.48,13.47c1.83,2.23,3.96,4.66,6.4,7.25,2.22,2.35,4.7,4.83,7.46,7.4,2.23,2.07,4.63,4.2,7.23,6.37,2.17,1.79,4.47,3.62,6.9,5.47,2.69,2.02,5.54,4.06,8.57,6.11,2.48,1.67,5.09,3.35,7.82,5.01,2.81,1.72,5.75,3.43,8.83,5.11,2.43,1.34,4.95,2.66,7.55,3.95h0c2.64,1.33,5.37,2.63,8.19,3.91,2.66,1.2,5.41,2.39,8.24,3.55,3.57,1.46,7.27,2.88,11.11,4.26,2.35.84,4.75,1.66,7.21,2.46,2.95.96,5.99,1.89,9.1,2.79,2.87.83,5.81,1.64,8.82,2.41,2.68.68,5.41,1.34,8.19,1.97,3.57.81,7.23,1.58,10.98,2.29h0c2.87.55,5.79,1.07,8.76,1.56,2.84.47,5.73.9,8.67,1.31,3.23.45,6.51.86,9.86,1.24,2.67.3,5.38.57,8.13.82,2.87.26,5.79.49,8.75.69,2.77.2,5.58.36,8.43.5,3.13.15,6.3.27,9.52.36.91-.02,1.82-.05,2.73-.09,3.29-.1,6.52-.24,9.71-.42,3.81-.21,7.54-.47,11.2-.78,3.31-.27,6.56-.59,9.75-.94,3.2-.34,6.35-.73,9.43-1.14,3.5-.48,6.93-.99,10.28-1.55,3.45-.57,6.83-1.19,10.13-1.85,3.19-.62,6.32-1.29,9.37-2,2.88-.66,5.69-1.35,8.44-2.08,2.83-.73,5.6-1.5,8.3-2.3,3.05-.9,6.02-1.83,8.92-2.8,3.26-1.08,6.43-2.21,9.5-3.37,2.88-1.09,5.67-2.2,8.37-3.34,3.26-1.37,6.39-2.78,9.41-4.22,2.78-1.32,5.46-2.67,8.05-4.04,2.42-1.27,4.76-2.57,7.02-3.87,3.02-1.75,5.9-3.52,8.64-5.31,2.36-1.52,4.62-3.06,6.77-4.6-.06.06-.11.09-.13.13Z"/>
  </g>
  <g id="HEM">
      <path class="st1" data-role="fill" d="M1002.76,1463.27s-58.21,52.08-388.34,42.12c0,0-236.68-4.59-301.02-42.12"/>
      <path class="st1" data-role="fill" d="M1002.76,1478.68s-58.21,52.08-388.34,42.13c0,0-236.68-4.6-301.02-42.13"/>
  </g>
  <g id="COLLAR_ROUND">
      <path class="st0" data-role="fill" d="M849.9,136.73l-3.15,5.38s-38.85,85.95-198.17,90.26c0,0,.01,0,0,0-159.33-4.3-204.2-90.26-204.2-90.26l42.16-24.87s62.98,61.76,169.53,56.32,155.33-58.21,155.33-58.21l38.49,21.38Z"/>
      <path class="st1" data-role="fill" d="M849.9,152.86l-3.15,5.38s-38.85,85.95-198.17,90.26c0,0,.01,0,0,0-159.33-4.3-204.2-90.26-204.2-90.26"/>
      <line class="st2" data-role="outliers" x1="488.85" y1="120.79" x2="453.87" y2="155.57"/>
      <polyline class="st2" data-role="outliers" points="494.27 123.87 460.27 162.82 459.82 163.34"/>
      <line class="st2" data-role="outliers" x1="500.23" y1="128.4" x2="467.73" y2="170.21"/>
      <line class="st2" data-role="outliers" x1="507.05" y1="133.19" x2="474.97" y2="176.58"/>
      <line class="st2" data-role="outliers" x1="513.5" y1="137.36" x2="481.87" y2="182.05"/>
      <line class="st2" data-role="outliers" x1="520.92" y1="141.8" x2="490.44" y2="188.16"/>
      <line class="st2" data-role="outliers" x1="498.25" y1="193.18" x2="526.72" y2="145.47"/>
      <line class="st2" data-role="outliers" x1="533.72" y1="148.61" x2="507.08" y2="198.29"/>
      <line class="st2" data-role="outliers" x1="539.74" y1="152.86" x2="514.63" y2="202.25"/>
      <line class="st2" data-role="outliers" x1="522.82" y1="206.15" x2="545.62" y2="157.22"/>
      <line class="st2" data-role="outliers" x1="531.06" y1="209.7" x2="553.28" y2="160.21"/>
      <line class="st2" data-role="outliers" x1="542.17" y1="213.95" x2="560.8" y2="160.28"/>
      <line class="st2" data-role="outliers" x1="549.37" y1="216.41" x2="567.57" y2="164.33"/>
      <line class="st2" data-role="outliers" x1="558.47" y1="219.21" x2="575.48" y2="165.32"/>
      <line class="st2" data-role="outliers" x1="567.57" y1="220.54" x2="582.64" y2="170.22"/>
      <line class="st2" data-role="outliers" x1="575.48" y1="223.59" x2="590.81" y2="169.33"/>
      <line class="st2" data-role="outliers" x1="586.47" y1="225.88" x2="598.29" y2="170.85"/>
      <line class="st2" data-role="outliers" x1="595.23" y1="227.44" x2="606.64" y2="173.56"/>
      <line class="st2" data-role="outliers" x1="603.89" y1="228.75" x2="615.32" y2="175.09"/>
      <line class="st2" data-role="outliers" x1="613.76" y1="229.99" x2="623.51" y2="173.97"/>
      <line class="st2" data-role="outliers" x1="621.96" y1="229.99" x2="630.64" y2="174.32"/>
      <line class="st2" data-role="outliers" x1="630.64" y1="231.51" x2="639.06" y2="175.09"/>
      <line class="st2" data-role="outliers" x1="639.06" y1="232" x2="647.15" y2="174.32"/>
      <line class="st2" data-role="outliers" x1="651.32" y1="232.36" x2="653.11" y2="175.09"/>
      <line class="st2" data-role="outliers" x1="661.02" y1="231.85" x2="661.02" y2="175.09"/>
      <line class="st2" data-role="outliers" x1="672.25" y1="231.51" x2="668.68" y2="173.97"/>
      <line class="st2" data-role="outliers" x1="681.96" y1="229.99" x2="676.85" y2="173.56"/>
      <line class="st2" data-role="outliers" x1="691.41" y1="228.98" x2="684" y2="170.85"/>
      <line class="st2" data-role="outliers" x1="701.68" y1="227.44" x2="693.19" y2="170.85"/>
      <line class="st2" data-role="outliers" x1="711.82" y1="225.6" x2="699.21" y2="168.43"/>
      <line class="st2" data-role="outliers" x1="721.2" y1="223.59" x2="705.98" y2="167.05"/>
      <line class="st2" data-role="outliers" x1="729.63" y1="221.51" x2="713.6" y2="165.3"/>
      <line class="st2" data-role="outliers" x1="737.93" y1="219.21" x2="721.9" y2="163.14"/>
      <line class="st2" data-role="outliers" x1="746.85" y1="216.41" x2="728.66" y2="161.15"/>
      <line class="st2" data-role="outliers" x1="756.36" y1="213.04" x2="734.62" y2="159.26"/>
      <line class="st2" data-role="outliers" x1="764.72" y1="209.7" x2="741.73" y2="156.78"/>
      <line class="st2" data-role="outliers" x1="774.14" y1="205.48" x2="748.38" y2="154.24"/>
      <polyline class="st2" data-role="outliers" points="756.11 151.01 782.19 201.44 782.56 202.15"/>
      <line class="st2" data-role="outliers" x1="789.2" y1="197.57" x2="762.74" y2="147.99"/>
      <line class="st2" data-role="outliers" x1="797.86" y1="192.26" x2="770.51" y2="144.11"/>
      <polyline class="st2" data-role="outliers" points="777.41 140.34 804.62 187.65 804.62 187.66"/>
      <polyline class="st2" data-role="outliers" points="784.38 136.2 812.07 182.03 812.43 182.63"/>
      <polyline class="st2" data-role="outliers" points="791.72 131.4 820.25 175.08 820.25 175.09"/>
      <line class="st2" data-role="outliers" x1="826.26" y1="169.32" x2="797.63" y2="127.17"/>
      <line class="st2" data-role="outliers" x1="833.35" y1="161.62" x2="804.61" y2="121.73"/>
      <line class="st2" data-role="outliers" x1="839.58" y1="153.73" x2="811.41" y2="118.02"/>
  </g>
  <g id="SHADING">
      <path d="M990.21,634.5c1.88,27.7,1.17,55.66-.79,83.34-3.65,46.09-10.7,92.73-28.32,135.72,19-71.51,24.13-145.51,29.11-219.06Z"/>
      <g>
        <path d="M1146.46,454.24c2.58,43.77-3.15,104.05-21.44,144,11.27-47.39,15.15-95.8,21.44-144Z"/>
        <path d="M1025.01,358.24l-12.23,169.52c-1.92,7.81-3.64,15.34-5.13,22.48,0,0-.14,1.22-.37,3.52-1.7-.17-3.29-1.49-3.12-3.83l20.85-191.69Z"/>
        <path d="M936.98,1121.41c20.14-44.91,35.99-91.53,53.23-137.63-11.4,52.18-40.53,141.95-76.6,180.76,9.4-13.5,16.53-28.24,23.37-43.13Z"/>
        <path d="M995.57,1418.84c-42.45,33.9-101.27,60.49-154.67,70.39-10.38,1.98-20.93,3.25-31.46,3.91,8.25-1.86,16.49-3.52,24.61-5.7,56.93-14.47,110.99-38.84,161.52-68.6Z"/>
        <path d="M907.49,668.71c-52.1,171.16-113.87,340.08-193.4,500.52-19.35,38.25-40.18,75.98-63.55,111.95-7.47,11.71-20.58,30.09-29.01,41.15,11.89-17.05,25.75-38.61,36.1-56.49,12.99-22.25,25.63-45.73,37.3-68.71,85.03-169.96,150.27-349.1,212.56-528.42Z"/>
        <path d="M639.32,729.56c38.07-26.82,74.88-55.45,108.85-87.4-26.48,36.01-68.3,68.53-107.99,88.83-2.8,1.4-5.6,2.79-8.44,4.11,2.5-1.9,5.04-3.72,7.58-5.54Z"/>
        <path d="M459.15,963.86c-2.89-4.97-8.53-14.79-11.34-19.78-33.56-59.46-61.86-122.6-84.36-187.04-7.39-21.18-14.48-43.76-20.32-65.4-5.87-21.84-11.34-44.5-14.71-66.84,10.75,44.1,24.88,87.69,40.37,130.35,21.78,60.32,47.78,120.11,75.49,177.92,4.47,9.09,10.54,21.63,14.87,30.79Z"/>
        <path d="M381.39,590.51c4.1,2.66,8.27,4.98,12.39,7.73-24.29-4.61-51.34-23.94-59.23-48,13.04,16.27,29.26,29.31,46.84,40.27Z"/>
        <path d="M415.74,1380.54c-27.39-51.72-45.64-108.28-60.57-164.75-11.4-44.04-20.89-88.85-26.75-133.97,24.58,100.8,48.9,202.11,87.32,298.72Z"/>
        <path d="M329.41,1391.39c6.62,21.75,14.65,43.23,26.59,62.68-12.67-19.04-21.54-40.35-28.97-61.91-6.11-18.2-11.23-36.63-15.33-55.38.09-4.53.16-9.17.22-13.92,1.09-.01,2.18.66,2.43,2.14,3.54,22.36,8.62,44.65,15.06,66.39Z"/>
        <path d="M312.5,549.93c.18,2.31-1.4,3.64-3.11,3.83-.23-2.3-.37-3.52-.37-3.52-1.49-7.16-3.21-14.71-5.14-22.54l-12.22-169.46,20.84,191.69Z"/>
        <path d="M163.87,454.24c6.3,48.2,10.18,96.61,21.45,144-18.29-39.92-24.03-100.2-21.45-144Z"/>
    </g>
  </g>
</svg>