<?xml version="1.0" encoding="utf-8"?>
<!-- Generator: Adobe Illustrator 28.2.0, SVG Export Plug-In . SVG Version: 6.00 Build 0)  -->
<svg version="1.1" id="Layer_1" xmlns="http://www.w3.org/2000/svg" xmlns:xlink="http://www.w3.org/1999/xlink" x="0px" y="0px"
	 viewBox="0 0 2420 1491" style="enable-background:new 0 0 2420 1491;" xml:space="preserve">
<style type="text/css">
	.st0{fill:#FFFFFF;stroke:#000000;stroke-width:2.1073;stroke-miterlimit:10;}
	.st1{clip-path:url(#Sleve_00000158712276868057120700000013279235466885886873_);}
	
		.st2{fill:none;stroke:#030408;stroke-width:1.2065;stroke-linecap:round;stroke-linejoin:round;stroke-miterlimit:10;stroke-dasharray:2.4178,4.8297;}
	.st3{fill:none;stroke:#030408;stroke-width:0.56;stroke-linecap:round;stroke-linejoin:round;stroke-miterlimit:10;}
	.st4{opacity:0.2;clip-path:url(#Sleve_00000158712276868057120700000013279235466885886873_);}
	.st5{clip-path:url(#No_Fill_00000031897805380020581970000008507893665092417681_);}
	.st6{opacity:0.2;clip-path:url(#No_Fill_00000031897805380020581970000008507893665092417681_);}
	.st7{opacity:0.2;clip-path:url(#No_Fil_00000145037873714540547370000007522102286931104443_);}
	.st8{clip-path:url(#SVGID_00000144296894558322374960000009996896161657873560_);}
	.st9{fill:none;stroke:#030408;stroke-width:0.9531;stroke-linecap:round;stroke-linejoin:round;stroke-miterlimit:10;}
	.st10{fill:#FFFFFF;}
	.st11{fill:#FFFFFF;stroke:#000000;stroke-width:1.0537;stroke-miterlimit:10;}
	.st12{clip-path:url(#SVGID_00000067215315858348056530000012258403085820834738_);}
	
		.st13{fill:none;stroke:#030408;stroke-width:1.1146;stroke-linecap:round;stroke-linejoin:round;stroke-miterlimit:10;stroke-dasharray:2.2336,4.4618;}
	.st14{fill:none;}
	.st15{fill:#030408;}
	
		.st16{fill:none;stroke:#030408;stroke-width:1.1672;stroke-linecap:round;stroke-linejoin:round;stroke-miterlimit:10;stroke-dasharray:2.339,4.6724;}
	.st17{fill:#FFFFFF;stroke:#000000;stroke-width:0.819;stroke-miterlimit:10;}
	.st18{fill:#0F1B3C;}
	.st19{fill:#A91C2B;}
	.st20{opacity:0.15;clip-path:url(#No_full_00000054955956055663218140000014809969927194101145_);}
	.st21{clip-path:url(#No_full_00000054955956055663218140000014809969927194101145_);}
	.st22{opacity:0.15;clip-path:url(#SVGID_00000142138209084042761220000005444289607279857590_);}
	.st23{clip-path:url(#SVGID_00000142138209084042761220000005444289607279857590_);}
	.st24{opacity:0.2;clip-path:url(#SVGID_00000134930169335745138490000013510058831644295100_);}
	.st25{fill:#606060;}
	.st26{clip-path:url(#SVGID_00000134930169335745138490000013510058831644295100_);}
	
		.st27{fill:none;stroke:#030408;stroke-width:1.1664;stroke-linecap:round;stroke-linejoin:round;stroke-miterlimit:10;stroke-dasharray:5.3235,5.3235;}
</style>
<g id="Front_00000069361865712188558700000007863281467138838424_">
	<g id="Right_Sleeve">
		<path id="fILL" class="st0" d="M2040.3,211.9c4.2,1.5,5.7,1.5,9.3,3.1c8.3,3.8,17.3,9.5,22.3,12.7c11.5,7.4,22.7,14.8,31.6,28.4
			c4.6,7.1,6.9,13.2,9.5,21.1c8.9,26.4,13.3,39.7,16.9,58c11.8,60.6,30.1,87.7,51.6,190.7c3.5,16.6,6,30,7.4,37.9
			c-18.1,8-40.8,13.6-61.3,21c-41.6,15-78,25.3-113.6,35.9c-2.8-12.6-4.7-25.4-7.6-38c-5.1-14.4-6.2-50.2-10.5-67.4
			c-5.5-21.5-14.8-25-17.7-50.5c-12.4-109,12.2-198.3,31.6-250.8C2020,213.3,2030.2,212.6,2040.3,211.9z"/>
		<g>
			<defs>
				<path id="Sleve_00000102513008267674842310000012589754252504231077_" d="M2040.3,212.3c4.2,1.5,5.7,1.5,9.3,3.1
					c8.3,3.8,17.3,9.5,22.3,12.7c11.5,7.4,22.7,14.8,31.6,28.4c4.6,7.1,6.9,13.2,9.5,21.1c8.9,26.4,13.3,39.7,16.9,58
					c11.8,60.6,30.1,87.7,51.6,190.7c3.5,16.6,6,30,7.4,37.9c-18.1,8-40.8,13.6-61.3,21c-41.6,15-78,25.3-113.6,35.9
					c-2.8-12.6-4.7-25.4-7.6-38c-5.1-14.4-6.2-50.2-10.5-67.4c-5.5-21.5-14.8-25-17.7-50.5c-12.4-109,12.2-198.3,31.6-250.8
					C2020,213.7,2030.1,213,2040.3,212.3z"/>
			</defs>
			<clipPath id="Sleve_00000010304851573280564030000010800365476502305685_">
				<use xlink:href="#Sleve_00000102513008267674842310000012589754252504231077_"  style="overflow:visible;"/>
			</clipPath>
			
				<g id="Stitch_00000016759372819090438890000016800931599595585959_" style="clip-path:url(#Sleve_00000010304851573280564030000010800365476502305685_);">
				<line class="st2" x1="2013.5" y1="598.5" x2="2179.7" y2="541.9"/>
				<line class="st2" x1="2013.4" y1="592.7" x2="2179.6" y2="536.1"/>
				<path class="st3" d="M2029,423.2c17.3-33.3,46.5-71.6,53.2-109.1"/>
				<path class="st3" d="M2018,447.2c19.5,8.7,61.5-41.6,73.6-53.2"/>
			</g>
			
				<g id="Strips_Sleeve_00000017478647270645675410000007350307388719831730_" style="opacity:0.2;clip-path:url(#Sleve_00000010304851573280564030000010800365476502305685_);">
				<rect x="965.6" y="504" width="1572.2" height="11.8"/>
				<rect x="965.6" y="535.1" width="1572.2" height="11.8"/>
				<rect x="965.5" y="447.4" width="1572.2" height="11.8"/>
				<rect x="965.5" y="478.6" width="1572.2" height="11.8"/>
				<rect x="965.8" y="566.2" width="1572.2" height="11.8"/>
				<rect x="965.8" y="594.4" width="1572.2" height="11.8"/>
				<rect x="964.5" y="268.8" width="1572.2" height="11.8"/>
				<rect x="964.5" y="299.9" width="1572.2" height="11.8"/>
				<rect x="964.4" y="212.2" width="1572.2" height="11.8"/>
				<rect x="964.4" y="243.4" width="1572.2" height="11.8"/>
				<rect x="964.9" y="387.6" width="1572.2" height="11.8"/>
				<rect x="964.9" y="418.7" width="1572.2" height="11.8"/>
				<rect x="964.8" y="331" width="1572.2" height="11.8"/>
				<rect x="964.8" y="362.2" width="1572.2" height="11.8"/>
			</g>
		</g>
	</g>
	<g id="Left_Slevee">
		<path id="Fill_00000170278845452519251860000004110735970248738223_" class="st0" d="M1414.3,214c0.5-1.7-19.4,4.3-34.8,14.8
			c-11.3,7.7-22.7,14.8-31.6,28.4c-4.6,7.1-6.9,13.2-9.5,21.1c-8.9,26.4-13.3,39.7-16.9,58c-11.8,60.6-30.1,87.7-51.6,190.7
			c-3.5,16.6-6,30-7.4,37.9c18.1,8,40.8,13.6,61.3,21c41.6,15,78,25.3,113.6,35.9c2.8-12.6,4.7-25.4,7.6-38
			c5.1-14.4,6.2-50.2,10.5-67.4c5.5-21.5,14.8-25,17.7-50.5c12.4-109-12.2-198.3-31.6-250.8C1431.5,214.4,1424.5,214.7,1414.3,214z"
			/>
		<g id="Sleve">
			<defs>
				<path id="No_Fill" d="M1415,213.3c0.5-1.7-19.4,4.3-34.8,14.8c-11.3,7.7-22.7,14.8-31.6,28.4c-4.6,7.1-6.9,13.2-9.5,21.1
					c-8.9,26.4-13.3,39.7-16.9,58c-11.8,60.6-30.1,87.7-51.6,190.7c-3.5,16.6-6,30-7.4,37.9c18.1,8,40.8,13.6,61.3,21
					c41.6,15,78,25.3,113.6,35.9c2.8-12.6,4.7-25.4,7.6-38c5.1-14.4,6.2-50.2,10.5-67.4c5.5-21.5,14.8-25,17.7-50.5
					c12.4-109-12.2-198.3-31.6-250.8C1432.2,213.7,1425.2,214,1415,213.3z"/>
			</defs>
			<clipPath id="No_Fill_00000088828340065130943580000015404637303084096439_">
				<use xlink:href="#No_Fill"  style="overflow:visible;"/>
			</clipPath>
			
				<g id="Stitch_00000165923651022975510500000012271194896337648046_" style="clip-path:url(#No_Fill_00000088828340065130943580000015404637303084096439_);">
				<line class="st2" x1="1271.8" y1="543" x2="1437.9" y2="599.6"/>
				<line class="st2" x1="1271.9" y1="537.2" x2="1438" y2="593.7"/>
				<path class="st3" d="M1422.4,424.3c-17.3-33.3-46.5-71.6-53.2-109.1"/>
				<path class="st3" d="M1433.5,448.2c-19.5,8.7-61.5-41.6-73.6-53.2"/>
			</g>
			<g id="Strips_Sleeve" style="opacity:0.2;clip-path:url(#No_Fill_00000088828340065130943580000015404637303084096439_);">
				<rect x="589.8" y="599" width="1572.2" height="11.8"/>
				<rect x="588.9" y="420.3" width="1572.2" height="11.8"/>
				<rect x="588.9" y="451.5" width="1572.2" height="11.8"/>
				<rect x="588.7" y="363.8" width="1572.2" height="11.8"/>
				<rect x="588.7" y="395" width="1572.2" height="11.8"/>
				<rect x="589.2" y="539.1" width="1572.2" height="11.8"/>
				<rect x="589.2" y="570.3" width="1572.2" height="11.8"/>
				<rect x="589.1" y="482.6" width="1572.2" height="11.8"/>
				<rect x="589.1" y="513.7" width="1572.2" height="11.8"/>
				<rect x="589.5" y="304.7" width="1572.2" height="11.8"/>
				<rect x="589.5" y="335.9" width="1572.2" height="11.8"/>
				<rect x="589.4" y="248.2" width="1572.2" height="11.8"/>
				<rect x="589.4" y="276.4" width="1572.2" height="11.8"/>
			</g>
		</g>
	</g>
	<g id="Body_00000137855065414518723550000015904810000501279400_">
		<path id="Fill_00000000215109693966985680000016102489101925424518_" class="st0" d="M1566,179.2c-2.5,0.5-6.5,1.2-11.6,2.1
			c-10.6,1.8-18.4,2.9-20,3.2c-12.8,1.8-47.3,8.5-86.4,19c-13.5,3.6-30.3,8.5-49.5,14.8c3.4,11.2,5.8,20.3,7.4,26.3
			c5.4,20.9,6,27.6,13.7,62.2c3.5,15.8,4,17.2,5.3,24.2c3.1,17.6,3.9,31.4,4.2,37.9c0.5,11.3,0.2,19.9,0,25.3
			c-0.4,10.7-1.2,20-2.1,27.4c4.2,8.1,8.3,17,12.1,26.9c2,5.1,3.7,10,5.3,14.8c0.8,14.8,1.6,29.9,2.1,45.3c0.5,13.6,0.8,26.9,1.1,40
			c0.2,12.9,1.6,21.7,5.3,50.6c7.8,61.9,8.9,65.8,10.5,86.4c1.1,14.6,2.2,29.3,2.1,48.5c-0.2,27.5-2.9,48.4-6.3,72.7
			c-6.3,44.1-11.2,78.6-21.1,127.5c-9.3,45.9-18.5,82.8-23.2,101.2c-2.9,11.7-5.5,21.4-7.4,28.4c1.2,6.1,2.2,14.8,1.1,25.3
			c-1.1,10.3-3.9,18.6-6.3,24.2c-10.5,75.2-21.1,150.3-31.6,225.5c24.8,7.3,51.5,14.2,80.1,20c20.7,4.2,73.2,14.3,159.1,19
			c89.9,4.9,158.4,0.8,222.3-3.2c87.7-5.5,123.1-8.3,158-14.8c41.2-7.6,74.8-17,98-24.2c-5.1-40.7-12-84-21.1-129.6
			c-8.9-44.3-18.9-85.8-29.5-124.3c0.5-10.4,0.2-23.3-2.1-37.9c-2.7-16.7-7.3-30.6-11.6-41.1c0.5-4.7,1.1-12.1,1.1-21.1
			c-0.1-22.5-3.9-39.4-5.3-45.3c-6.1-27.5-10.1-59.8-17.9-124.3c-1.3-10.9-4.3-35.9-6.3-65.3c-8.1-119.3,11.8-146.4,3.2-222.3
			c-1-8.6-3.6-28.9,1.1-54.8c4.1-23.1,12.2-40.9,17.9-51.6c-0.2-14.5,0.1-29.6,1.1-45.3c3.6-60.5,15.4-113.7,29.5-158
			c-13.6-4.8-28-9.4-43.2-13.7c-34.1-9.5-66.1-15.4-94.8-19c-9.5,3.9-19,7.7-28.4,11.6c-46.9,20.7-88.2,29-117,32.7
			c-51.9,6.6-86.9,1-120.1-4.2c-35.2-5.6-63.7-14.2-75.9-36.9C1567.4,182.6,1566.5,180.6,1566,179.2z"/>
		<g>
			<defs>
				<path id="No_Fil" d="M1564.9,178c-2.5,0.5-6.5,1.2-11.6,2.1c-10.6,1.8-18.4,2.9-20,3.2c-12.8,1.8-47.3,8.5-86.4,19
					c-13.5,3.6-30.3,8.5-49.5,14.8c3.4,11.2,5.8,20.3,7.4,26.3c5.4,20.9,6,27.6,13.7,62.2c3.5,15.8,4,17.2,5.3,24.2
					c3.1,17.6,3.9,31.4,4.2,37.9c0.5,11.3,0.2,19.9,0,25.3c-0.4,10.7-1.2,20-2.1,27.4c4.2,8.1,8.3,17,12.1,26.9
					c2,5.1,3.7,10,5.3,14.8c0.8,14.8,1.6,29.9,2.1,45.3c0.5,13.6,0.8,26.9,1.1,40c0.2,12.9,1.6,21.7,5.3,50.6
					c7.8,61.9,8.9,65.8,10.5,86.4c1.1,14.6,2.2,29.3,2.1,48.5c-0.2,27.5-2.9,48.4-6.3,72.7c-6.3,44.1-11.2,78.6-21.1,127.5
					c-9.3,45.9-18.5,82.8-23.2,101.2c-2.9,11.7-5.5,21.4-7.4,28.4c1.2,6.1,2.2,14.8,1.1,25.3c-1.1,10.3-3.9,18.6-6.3,24.2
					c-10.5,75.2-21.1,150.3-31.6,225.5c24.8,7.3,51.5,14.2,80.1,20c20.7,4.2,73.2,14.3,159.1,19c89.9,4.9,158.4,0.8,222.3-3.2
					c87.7-5.5,123.1-8.3,158-14.8c41.2-7.7,74.8-17,98-24.2c-5.1-40.7-12-84-21.1-129.6c-8.9-44.3-18.9-85.8-29.5-124.3
					c0.5-10.4,0.2-23.3-2.1-37.9c-2.7-16.7-7.3-30.6-11.6-41.1c0.5-4.7,1.1-12.1,1.1-21.1c-0.1-22.5-3.9-39.4-5.3-45.3
					c-6.1-27.5-10.1-59.8-17.9-124.3c-1.3-10.9-4.3-35.9-6.3-65.3c-8.1-119.3,11.8-146.4,3.2-222.3c-1-8.6-3.6-28.9,1.1-54.8
					c4.1-23.1,12.2-40.9,17.9-51.6c-0.2-14.5,0.1-29.6,1.1-45.3c3.6-60.5,15.4-113.7,29.5-158c-13.6-4.8-28-9.4-43.2-13.7
					c-34.1-9.5-66.1-15.4-94.8-19c-9.5,3.9-19,7.7-28.4,11.6c-46.9,20.7-88.2,29-117,32.7c-51.9,6.6-86.9,1-120.1-4.2
					c-35.2-5.6-63.7-14.2-75.9-36.9C1566.3,181.5,1565.4,179.4,1564.9,178z"/>
			</defs>
			<clipPath id="No_Fil_00000005981313394508750190000001329431531023608991_">
				<use xlink:href="#No_Fil"  style="overflow:visible;"/>
			</clipPath>
			<g id="Strips_Body" style="opacity:0.2;clip-path:url(#No_Fil_00000005981313394508750190000001329431531023608991_);">
				<rect x="881.5" y="888.8" width="1572.2" height="11.8"/>
				<rect x="881.5" y="919.9" width="1572.2" height="11.8"/>
				<rect x="881.4" y="832.2" width="1572.2" height="11.8"/>
				<rect x="881.4" y="863.4" width="1572.2" height="11.8"/>
				<rect x="881.8" y="1007.5" width="1572.2" height="11.8"/>
				<rect x="881.8" y="1038.7" width="1572.2" height="11.8"/>
				<rect x="881.7" y="951" width="1572.2" height="11.8"/>
				<rect x="881.7" y="982.2" width="1572.2" height="11.8"/>
				<rect x="881.8" y="654.4" width="1572.2" height="11.8"/>
				<rect x="881.8" y="685.5" width="1572.2" height="11.8"/>
				<rect x="881.7" y="597.8" width="1572.2" height="11.8"/>
				<rect x="881.7" y="629" width="1572.2" height="11.8"/>
				<rect x="882.1" y="773.2" width="1572.2" height="11.8"/>
				<rect x="882.1" y="804.3" width="1572.2" height="11.8"/>
				<rect x="882" y="716.6" width="1572.2" height="11.8"/>
				<rect x="882" y="744.8" width="1572.2" height="11.8"/>
				<rect x="881.9" y="1360.4" width="1572.2" height="11.8"/>
				<rect x="881.8" y="1303.9" width="1572.2" height="11.8"/>
				<rect x="881.8" y="1335.1" width="1572.2" height="11.8"/>
				<rect x="882.3" y="1126.1" width="1572.2" height="11.8"/>
				<rect x="882.3" y="1157.2" width="1572.2" height="11.8"/>
				<rect x="882.1" y="1069.5" width="1572.2" height="11.8"/>
				<rect x="882.1" y="1100.7" width="1572.2" height="11.8"/>
				<rect x="882.6" y="1244.8" width="1572.2" height="11.8"/>
				<rect x="882.6" y="1276" width="1572.2" height="11.8"/>
				<rect x="882.5" y="1188.3" width="1572.2" height="11.8"/>
				<rect x="882.5" y="1216.5" width="1572.2" height="11.8"/>
				<rect x="880.7" y="419.2" width="1572.2" height="11.8"/>
				<rect x="880.7" y="450.3" width="1572.2" height="11.8"/>
				<rect x="880.6" y="362.6" width="1572.2" height="11.8"/>
				<rect x="880.6" y="393.8" width="1572.2" height="11.8"/>
				<rect x="881" y="537.9" width="1572.2" height="11.8"/>
				<rect x="881" y="569.1" width="1572.2" height="11.8"/>
				<rect x="880.9" y="481.4" width="1572.2" height="11.8"/>
				<rect x="880.9" y="512.6" width="1572.2" height="11.8"/>
				<rect x="881" y="215.9" width="1572.2" height="11.8"/>
				<rect x="881.3" y="303.6" width="1572.2" height="11.8"/>
				<rect x="881.3" y="334.7" width="1572.2" height="11.8"/>
				<rect x="881.2" y="247" width="1572.2" height="11.8"/>
				<rect x="881.2" y="275.2" width="1572.2" height="11.8"/>
			</g>
		</g>
		<g id="Body">
			<defs>
				<path id="SVGID_1_" d="M1566.7,178.8c-2.5,0.5-6.5,1.2-11.6,2.1c-10.6,1.8-18.4,2.9-20,3.2c-12.8,1.8-47.3,8.5-86.4,19
					c-13.5,3.6-30.3,8.5-49.5,14.8c3.4,11.2,5.8,20.3,7.4,26.3c5.4,20.9,6,27.6,13.7,62.2c3.5,15.8,4,17.2,5.3,24.2
					c3.1,17.6,3.9,31.4,4.2,37.9c0.5,11.3,0.2,19.9,0,25.3c-0.4,10.7-1.2,20-2.1,27.4c4.2,8.1,8.3,17,12.1,26.9
					c2,5.1,3.7,10,5.3,14.8c0.8,14.8,1.6,29.9,2.1,45.3c0.5,13.6,0.8,26.9,1.1,40c0.2,12.9,1.6,21.7,5.3,50.6
					c7.8,61.9,8.9,65.8,10.5,86.4c1.1,14.6,2.2,29.3,2.1,48.5c-0.2,27.5-2.9,48.4-6.3,72.7c-6.3,44.1-11.2,78.6-21.1,127.5
					c-9.3,45.9-18.5,82.8-23.2,101.2c-2.9,11.7-5.5,21.4-7.4,28.4c1.2,6.1,2.2,14.8,1.1,25.3c-1.1,10.3-3.9,18.6-6.3,24.2
					c-10.5,75.2-21.1,150.3-31.6,225.5c24.8,7.3,51.5,14.2,80.1,20c20.7,4.2,73.2,14.3,159.1,19c89.9,4.9,158.4,0.8,222.3-3.2
					c87.7-5.5,123.1-8.3,158-14.8c41.2-7.6,74.8-17,98-24.2c-5.1-40.7-12-84-21.1-129.6c-8.9-44.3-18.9-85.8-29.5-124.3
					c0.5-10.4,0.2-23.3-2.1-37.9c-2.7-16.7-7.3-30.6-11.6-41.1c0.5-4.7,1.1-12.1,1.1-21.1c-0.1-22.5-3.9-39.4-5.3-45.3
					c-6.1-27.5-10.1-59.8-17.9-124.3c-1.3-10.9-4.3-35.9-6.3-65.3c-8.1-119.3,11.8-146.4,3.2-222.3c-1-8.6-3.6-28.9,1.1-54.8
					c4.1-23.1,12.2-40.9,17.9-51.6c-0.2-14.5,0.1-29.6,1.1-45.3c3.6-60.5,15.4-113.7,29.5-158c-13.6-4.8-28-9.4-43.2-13.7
					c-34.1-9.5-66.1-15.4-94.8-19c-9.5,3.9-19,7.7-28.4,11.6c-46.9,20.7-88.2,29-117,32.7c-51.9,6.6-86.9,1-120.1-4.2
					c-35.2-5.6-63.7-14.2-75.9-36.9C1568.1,182.2,1567.2,180.2,1566.7,178.8z"/>
			</defs>
			<clipPath id="SVGID_00000041981658624875954820000017374686301149927301_">
				<use xlink:href="#SVGID_1_"  style="overflow:visible;"/>
			</clipPath>
			
				<g id="Stitch_00000077302332932330385640000006762374887033623175_" style="clip-path:url(#SVGID_00000041981658624875954820000017374686301149927301_);">
				<path class="st2" d="M1379,1321c21.1,6.9,51,15.6,87.5,23.2c69.4,14.4,123.8,16.4,170.7,17.9c48.2,1.6,83.1,0,152.8-3.2
					c63.8-2.9,95.6-4.3,137-9.5c40.3-5,92.9-13.9,153.8-30.6"/>
				<path class="st2" d="M1378.7,1310.6c21.1,6.9,51,15.6,87.5,23.2c69.4,14.4,123.8,16.4,170.7,17.9c48.2,1.6,83.1,0,152.8-3.2
					c63.8-2.9,95.6-4.3,137-9.5c40.3-5,92.9-13.9,153.8-30.6"/>
				<line class="st9" x1="1899.3" y1="765.9" x2="2051.1" y2="1143.3"/>
				<line class="st9" x1="1881.3" y1="526.9" x2="2033" y2="904.2"/>
			</g>
		</g>
	</g>
	<g id="Collar_00000181055512294536428360000012365064030479725746_">
		<g>
			<path class="st10" d="M1561.8,215c12-13,45.4,16.5,110.6,28.4c58.5,10.8,107.5,1,139.1-5.3c37.6-7.5,68.3-18.7,90.6-28.4
				c-0.9,15.5-5,48.1-27.4,80.1c-30.9,44.1-75.7,57.2-93.8,62.2c-51.8,14.3-94.9,1.4-110.6-4.2c-14.6-5.2-62.1-24.2-91.7-72.7
				C1573.8,267.1,1549.9,228,1561.8,215z"/>
			<g>
				<path class="st11" d="M1543.8,186.8c0,0,44.8,51,177,51h4.8c131.7,0,194.2-52.7,194.2-52.7l-25.6-7.9c0,0-56.5,41.1-168.6,41.1
					h-4.8c-113.6,0-155.1-41.1-155.1-41.1L1543.8,186.8"/>
				<path class="st11" d="M1907,216.1c-39.5,18.6-98.6,43.9-193.5,42.3c-115.1-2-164.8-41.2-164.8-41.2l9.6-25.4
					c0,0,34.9,33.1,149.2,39c127,6.6,192.8-41.9,192.8-41.9L1907,216.1"/>
			</g>
			<g>
				<path d="M1682.3,248.6c-0.2,0-0.5,0-0.7,0c-2.1-0.2-3.7-1.4-3.4-3.4l0.7-6.3l-1.3-0.1l0.1-1.1l3.9,0.4l-0.1,1.1l-1.3-0.1l-0.7,6
					c-0.2,1.4,0.6,2.2,2.2,2.3c0.2,0,0.4,0,0.5,0c1.3,0,2-0.6,2.1-1.8l0.7-6l-1.3-0.1l0.1-1.1l3.9,0.4l-0.1,1.1l-1.3-0.1l-0.7,6.3
					C1685.5,247.8,1684.1,248.6,1682.3,248.6"/>
				<polyline points="1689.4,249.3 1688,249.2 1688.1,247.7 1689.6,247.9 1689.4,249.3 				"/>
				<path d="M1695.7,250.1c-0.2,0-0.5,0-0.7,0c-1.2-0.1-2.4-0.5-3.5-0.9l0.3-2.3l1.4,0.2l-0.2,1.4c0.6,0.2,1.3,0.5,2.2,0.6
					c0.2,0,0.3,0,0.5,0c1.4,0,2-0.7,2.1-1.6c0.1-1.3-0.9-1.7-2.4-2.1c-2.1-0.5-3.4-1.2-3.1-3.2c0.1-1.4,1.2-2.5,3.3-2.5
					c0.2,0,0.5,0,0.7,0c1.2,0.1,2.3,0.4,3.3,0.8l-0.3,2.3l-1.4-0.2l0.2-1.4c-0.6-0.2-1.2-0.4-2-0.5c-0.2,0-0.3,0-0.5,0
					c-1.3,0-1.8,0.7-1.9,1.5c-0.1,1.2,0.7,1.6,2.1,1.9c2.1,0.5,3.7,1.3,3.4,3.4C1699,249,1697.8,250.1,1695.7,250.1"/>
				<polyline points="1791.6,246.6 1791.5,245.2 1792.9,245.1 1793.1,246.5 1791.6,246.6 				"/>
				<path d="M1713.7,241.8C1713.7,241.8,1713.7,241.8,1713.7,241.8l-2.8,0l0,4.1l2.8,0c1.4,0,1.9-0.9,1.9-2.1
					C1715.6,242.6,1715.1,241.8,1713.7,241.8 M1708.3,250.9l0-1.1l1.3,0l-0.1-8.1l-1.3,0l0-1.1l5.7,0c0,0,0,0,0,0c2,0,3,1.4,3,3
					c0,1.7-0.9,3.1-3,3.2l-3,0l0,3l1.4,0l0,1.1L1708.3,250.9"/>
				<path d="M1722.8,241.7C1722.8,241.7,1722.8,241.7,1722.8,241.7c-2.2,0-3.2,1.7-3.2,4.1c0,2.3,1.1,4,3.2,4c0,0,0,0,0,0
					c2.2,0,3.2-1.7,3.2-4.1C1726,243.4,1724.9,241.7,1722.8,241.7 M1722.8,251c-2.9,0-4.7-2.3-4.7-5.2c0-2.9,1.7-5.3,4.7-5.3
					c0,0,0,0,0,0c2.9,0,4.7,2.3,4.7,5.2C1727.5,248.6,1725.8,251,1722.8,251C1722.8,251,1722.8,251,1722.8,251"/>
				<polyline points="1728.7,250.8 1728.7,249.7 1729.9,249.7 1729.9,241.7 1728.6,241.7 1728.6,240.6 1732.6,240.6 1732.6,241.6 
					1731.3,241.6 1731.3,249.7 1735.3,249.7 1735.3,248 1736.6,248 1736.7,250.8 1728.7,250.8 				"/>
				<path d="M1742.3,241.6C1742.2,241.6,1742.2,241.6,1742.3,241.6c-2.2,0-3.2,1.7-3.2,4.1c0,2.4,1.1,4,3.2,4c0,0,0,0,0,0
					c2.2,0,3.2-1.7,3.2-4.1C1745.5,243.3,1744.4,241.6,1742.3,241.6 M1742.3,250.9c-2.9,0-4.7-2.3-4.7-5.2c0-2.9,1.7-5.2,4.7-5.3
					c0,0,0,0,0,0c3,0,4.7,2.3,4.7,5.2C1747,248.5,1745.3,250.9,1742.3,250.9C1742.3,250.9,1742.3,250.9,1742.3,250.9"/>
				<path d="M1755,241.4l-0.2,1.4l-0.9,3.9l3.3-0.4l-1.7-3.6L1755,241.4 M1750.9,251.2l-0.1-1l1-0.1l2-8.3l-1.2,0.1l-0.1-1.1l5-0.6
					l0.1,1.1l-1.2,0.1l3.8,7.7l1-0.1l0.1,1.1l-3.7,0.4l-0.1-1.1l1.2-0.1l-1-2l-4,0.4l-0.5,2.2l1.3-0.2l0.1,1.1L1750.9,251.2"/>
				<path d="M1764.6,249.7c-0.8,0-1.5-0.1-2.3-0.2l-0.3-2.3l1.4-0.2l0.2,1.4c0.5,0.1,0.9,0.1,1.4,0.1c0.3,0,0.5,0,0.8,0
					c1.7-0.2,2.3-1.2,2.2-2.1c-0.1-1.3-1.2-1.5-2.8-1.5c-2.2,0-3.5-0.5-3.8-2.4c-0.2-1.5,0.8-3,3.3-3.3c0.5-0.1,0.9-0.1,1.4-0.1
					c0.7,0,1.4,0.1,2.1,0.1l0.3,2.3l-1.4,0.2l-0.1-1.4c-0.5-0.1-0.9-0.1-1.3-0.1c-0.2,0-0.5,0-0.8,0c-1.7,0.2-2.1,1.1-2,1.9
					c0.1,1.2,1.1,1.4,2.5,1.4c2.2,0,3.9,0.5,4.1,2.5c0.2,1.7-1,3.2-3.5,3.5C1765.5,249.7,1765.1,249.7,1764.6,249.7"/>
				<path d="M1773.7,248.7c-0.8,0-1.5-0.1-2.2-0.1l-0.3-2.3l1.4-0.2l0.2,1.4c0.5,0.1,0.9,0.1,1.4,0.1c0.3,0,0.5,0,0.8,0
					c1.7-0.2,2.3-1.2,2.2-2.1c-0.1-1.3-1.2-1.5-2.8-1.5c-2.2,0-3.5-0.5-3.8-2.4c-0.2-1.5,0.8-3,3.3-3.3c0.5-0.1,0.9-0.1,1.4-0.1
					c0.7,0,1.4,0.1,2.1,0.1l0.3,2.3l-1.4,0.2l-0.1-1.4c-0.5-0.1-0.8-0.1-1.3-0.1c-0.2,0-0.5,0-0.8,0c-1.7,0.2-2.1,1.1-2,1.9
					c0.1,1.2,1.1,1.4,2.5,1.4c2.2,0,3.9,0.5,4.1,2.5c0.2,1.7-1,3.2-3.5,3.5C1774.7,248.7,1774.2,248.7,1773.7,248.7"/>
				<polyline points="1780.2,247.9 1780,246.9 1781.3,246.7 1780.4,238.7 1779.1,238.9 1779,237.8 1782.1,237.4 1786.9,244.3 
					1787.4,245.2 1787.2,244.2 1786.6,238 1785.4,238.1 1785.3,237.1 1789,236.7 1789.2,237.7 1787.9,237.9 1788.9,246.9 
					1787.2,247.1 1782.2,239.8 1781.7,239 1781.9,239.9 1782.6,246.6 1783.9,246.4 1784,247.5 1780.2,247.9 				"/>
				<path d="M1823.3,239.7c-1.4,0-2.6-0.7-3-2.1l-1.7-6.1l-1.2,0.3l-0.3-1l3.8-1l0.3,1l-1.2,0.3l1.6,5.8c0.3,1,0.9,1.5,1.9,1.5
					c0.3,0,0.6-0.1,1-0.2c1.5-0.4,2.2-1.3,1.8-2.7l-1.6-5.8l-1.2,0.3l-0.3-1l3.8-1l0.3,1l-1.2,0.3l1.7,6.1c0.5,1.9-0.9,3.3-2.9,3.9
					C1824.3,239.6,1823.8,239.7,1823.3,239.7"/>
				<polyline points="1830.9,237.7 1830.5,236.3 1831.9,235.9 1832.3,237.3 1830.9,237.7 				"/>
				<path d="M1834.2,236.4l-0.6-2.3l1.3-0.4l0.4,1.4c0.7,0,1.4-0.1,2.2-0.3c1.6-0.5,2.1-1.5,1.8-2.4c-0.3-0.9-0.9-1.2-1.8-1.2
					c-0.3,0-0.7,0-1.2,0.1c-0.5,0.1-1,0.1-1.4,0.1c-1.4,0-2.3-0.5-2.7-1.9c-0.4-1.5,0.3-3.1,2.8-3.7c1.2-0.3,2.3-0.4,3.4-0.5
					l0.6,2.2l-1.3,0.4l-0.4-1.3c-0.7,0-1.3,0-2.1,0.3c-1.6,0.5-1.9,1.4-1.7,2.2c0.2,0.9,0.8,1.1,1.7,1.1c0.3,0,0.6,0,1-0.1
					c0.5-0.1,1-0.1,1.5-0.1c1.5,0,2.6,0.5,3,2c0.5,1.6-0.5,3.3-2.9,4C1836.6,236.3,1835.4,236.4,1834.2,236.4"/>
				<polyline points="1843.2,234.3 1842.8,232.9 1844.2,232.5 1844.6,233.9 1843.2,234.3 				"/>
				<path d="M1852,221.4c-0.2,0-0.5,0-0.8,0.2l-2.6,0.9l1.4,3.9l2.6-0.9c1.3-0.5,1.5-1.5,1.1-2.6
					C1853.3,221.9,1852.8,221.4,1852,221.4 M1849.1,231.9l-0.4-1l1.2-0.4l-2.7-7.6l-1.2,0.4l-0.4-1l5.4-1.9c0.4-0.2,0.8-0.2,1.2-0.2
					c1.3,0,2.2,0.9,2.7,2.1c0.6,1.6,0.2,3.3-1.8,4l-2.9,1l1,2.8l1.3-0.5l0.4,1L1849.1,231.9"/>
				<path d="M1860.9,218.3c-0.4,0-0.7,0.1-1.1,0.2c-2,0.7-2.5,2.7-1.7,4.9c0.6,1.8,1.8,3,3.3,3c0.4,0,0.7-0.1,1.1-0.2
					c2-0.7,2.5-2.7,1.7-4.9C1863.5,219.4,1862.3,218.3,1860.9,218.3 M1861.2,227.5c-2.1,0-3.8-1.5-4.6-3.7c-1-2.7-0.1-5.5,2.7-6.5
					c0.6-0.2,1.1-0.3,1.6-0.3c2.1,0,3.8,1.5,4.5,3.7c1,2.7,0.1,5.5-2.7,6.5C1862.3,227.4,1861.7,227.5,1861.2,227.5"/>
				<polyline points="1868.3,225.1 1868,224.1 1869.1,223.7 1866.5,216.1 1865.3,216.5 1864.9,215.5 1868.7,214.2 1869,215.2 
					1867.7,215.6 1870.4,223.3 1874.2,221.9 1873.6,220.3 1874.9,219.9 1875.8,222.5 1868.3,225.1 				"/>
				<g>
					<defs>
						<polyline id="SVGID_00000078727216584970877190000000143709722151271309_" points="1573.2,251.2 1884.3,251.2 1884.3,210.6 
							1573.2,210.6 1573.2,251.2 						"/>
					</defs>
					<clipPath id="SVGID_00000026852467216983737750000017856825599787050637_">
						<use xlink:href="#SVGID_00000078727216584970877190000000143709722151271309_"  style="overflow:visible;"/>
					</clipPath>
					<path style="clip-path:url(#SVGID_00000026852467216983737750000017856825599787050637_);" d="M1879.2,211.8
						c-0.4,0-0.7,0.1-1.1,0.2c-2,0.7-2.5,2.7-1.7,4.9c0.6,1.8,1.8,3,3.3,3c0.4,0,0.7-0.1,1.1-0.2c2-0.7,2.5-2.7,1.7-4.9
						C1881.8,212.9,1880.7,211.8,1879.2,211.8 M1879.6,221c-2.1,0-3.8-1.5-4.6-3.7c-1-2.7-0.1-5.5,2.7-6.5c0.5-0.2,1-0.3,1.5-0.3
						h0.3c2,0.1,3.6,1.5,4.4,3.7c1,2.7,0.1,5.5-2.7,6.5C1880.6,220.9,1880.1,221,1879.6,221"/>
				</g>
				<polyline points="1655.4,245.6 1654,245.3 1654.4,243.9 1655.8,244.2 1655.4,245.6 				"/>
				<path d="M1578.5,213.5l-1.3,3.9l2.6,0.9c0.3,0.1,0.5,0.1,0.7,0.1c0.9,0,1.4-0.6,1.7-1.5c0.4-1.1,0.2-2-1.2-2.5L1578.5,213.5
					 M1577,222.6l-3.8-1.3l0.3-1l1.2,0.4l2.5-7.7l-1.2-0.4l0.3-1l5.4,1.8c1.9,0.7,2.4,2.3,1.9,3.8c-0.4,1.3-1.3,2.2-2.7,2.2
					c-0.4,0-0.8-0.1-1.2-0.2l-2.9-0.9l-0.9,2.8l1.3,0.4L1577,222.6"/>
				<path d="M1588.7,217c-1.5,0-2.7,1.2-3.3,3c-0.7,2.2-0.3,4.2,1.8,4.9c0.4,0.1,0.7,0.2,1.1,0.2c1.5,0,2.7-1.2,3.3-3
					c0.7-2.2,0.3-4.2-1.8-4.9C1589.4,217.1,1589.1,217,1588.7,217 M1588.4,226.3c-0.5,0-1-0.1-1.5-0.3c-2.8-0.9-3.7-3.7-2.8-6.5
					c0.7-2.2,2.5-3.8,4.6-3.8c0.5,0,1,0.1,1.5,0.3c2.8,0.9,3.7,3.7,2.8,6.5C1592.2,224.8,1590.5,226.3,1588.4,226.3"/>
				<polyline points="1600.1,230.2 1592.5,227.7 1592.8,226.7 1594,227.1 1596.6,219.5 1595.4,219.1 1595.7,218 1599.5,219.3 
					1599.1,220.3 1597.9,219.9 1595.3,227.6 1599.1,228.8 1599.6,227.2 1600.9,227.6 1600.1,230.2 				"/>
				<path d="M1607.2,223.1c-1.5,0-2.7,1.2-3.3,3c-0.7,2.2-0.3,4.2,1.8,4.9c0.4,0.1,0.7,0.2,1.1,0.2c1.5,0,2.7-1.2,3.3-3
					c0.7-2.2,0.3-4.2-1.8-4.9C1607.9,223.2,1607.6,223.1,1607.2,223.1 M1606.9,232.4c-0.5,0-1-0.1-1.5-0.3c-2.8-0.9-3.7-3.7-2.8-6.5
					c0.7-2.2,2.5-3.8,4.6-3.8c0.5,0,1,0.1,1.5,0.3c2.8,0.9,3.7,3.7,2.8,6.5C1610.7,230.9,1609,232.4,1606.9,232.4"/>
				<path d="M1621.4,227.8l-0.7,1.2l-2.2,3.4l3.3,0.8l-0.4-4L1621.4,227.8 M1624.3,238.1l-3.6-0.9l0.2-1l1.2,0.3l-0.2-2.2l-3.9-0.9
					l-1.2,1.9l1.3,0.3l-0.3,1l-3.6-0.9l0.2-1l1,0.2l4.7-7.2l-1.2-0.3l0.3-1l4.9,1.2l-0.2,1l-1.2-0.3l0.9,8.5l1,0.2L1624.3,238.1"/>
				<path d="M1630.2,239.5c-0.4,0-0.9-0.1-1.4-0.2c-1.2-0.3-2.3-0.8-3.4-1.3l0.6-2.3l1.3,0.3l-0.3,1.4c0.6,0.3,1.3,0.6,2.1,0.8
					c0.3,0.1,0.6,0.1,0.9,0.1c1.1,0,1.7-0.6,1.9-1.4c0.3-1.3-0.6-1.8-2.1-2.4c-2-0.8-3.2-1.6-2.7-3.6c0.3-1.2,1.3-2.1,2.9-2.1
					c0.4,0,0.8,0.1,1.3,0.2c1.2,0.3,2.2,0.7,3.2,1.2l-0.5,2.2l-1.3-0.3l0.3-1.4c-0.6-0.3-1.1-0.6-1.9-0.8c-0.3-0.1-0.6-0.1-0.9-0.1
					c-1,0-1.5,0.6-1.7,1.2c-0.3,1.2,0.5,1.7,1.8,2.2c2.1,0.8,3.5,1.8,3,3.8C1633,238.6,1631.9,239.5,1630.2,239.5"/>
				<path d="M1639.2,241.7c-0.4,0-0.9-0.1-1.4-0.2c-1.2-0.3-2.3-0.8-3.4-1.3l0.5-2.3l1.4,0.3l-0.3,1.4c0.6,0.3,1.3,0.6,2.1,0.8
					c0.3,0.1,0.6,0.1,0.9,0.1c1.1,0,1.7-0.6,1.9-1.4c0.3-1.3-0.6-1.8-2.1-2.4c-2-0.8-3.2-1.6-2.7-3.6c0.3-1.2,1.3-2.1,2.9-2.1
					c0.4,0,0.8,0.1,1.3,0.2c1.2,0.3,2.2,0.7,3.2,1.2l-0.5,2.2l-1.3-0.3l0.3-1.4c-0.6-0.3-1.1-0.6-1.9-0.8c-0.3-0.1-0.6-0.1-0.9-0.1
					c-1,0-1.5,0.6-1.7,1.3c-0.3,1.2,0.5,1.7,1.8,2.2c2.1,0.8,3.5,1.8,3,3.8C1642,240.8,1640.9,241.7,1639.2,241.7"/>
				<polyline points="1651.3,244.6 1649.7,244.2 1647.5,235.6 1647.3,234.7 1647.1,235.6 1645.5,242.1 1646.8,242.4 1646.5,243.5 
					1642.8,242.6 1643,241.5 1644.3,241.8 1646.2,234 1644.9,233.7 1645.2,232.6 1648.2,233.4 1650.4,241.4 1650.5,242.5 
					1650.7,241.4 1652.2,235.4 1651.1,235.2 1651.3,234.1 1655,235 1654.7,236 1653.5,235.7 1651.3,244.6 				"/>
				<path class="st13" d="M1573.2,226.1c0,0,153.3,69.5,318-7.6 M1568.5,205c0,0,160.3,73.7,324.9-3.4"/>
			</g>
			<path class="st11" d="M1566.5,179.7c0.5,8.8,1.6,20.4,4.2,33.7c1.7,8.5,4.8,23.7,12.6,42.1c5.5,12.9,11.8,27.7,25.3,43.2
				c2.3,2.6,8.9,10,19,17.9c4,3.2,14.4,10.9,29.5,17.9c3.7,1.7,20,9,43.2,12.6c20.6,3.2,36.6,1.9,46.4,1.1c22.9-2,39.4-7.2,43.2-8.4
				c7.7-2.5,18.6-6.1,31.6-13.7c15.7-9.2,26.5-19.6,32.7-26.3c4.8-5.3,18.8-21.2,28.4-46.4c6.1-15.9,7.9-29.2,9.5-41.1
				c1.9-14,2.2-25.9,2.1-34.8c8.4,1.8,16.9,3.5,25.3,5.3c0.1,4.4,0.1,9,0,13.7c-0.3,11.4-0.4,19.2-2.1,28.4c-0.9,4.6-2,8.4-4.2,15.8
				c-3.2,10.6-6,20.1-10.5,30.6c-7.6,17.8-16.4,30.2-19,33.7c-13.2,18.2-26.9,29.3-32.7,33.7c-3.9,3-12,8.9-23.2,14.8
				c-20.8,10.9-38.7,14.5-50.6,16.9c-6.7,1.3-32.5,6.1-66.4,3.2c-25.2-2.2-43.7-7.7-49.5-9.5c-9.1-2.8-20.3-6.3-33.7-13.7
				c-7.3-4-27-15.6-45.3-37.9c-16.7-20.3-23.9-39.4-28.4-51.6c-9.9-26.7-12.6-51.4-12.6-70.6c-0.4-2.8-0.7-5.6-1.1-8.4
				c7.7-1.4,15.5-2.8,23.2-4.2"/>
		</g>
		<g id="Front_Collar">
			<path id="Fill_00000129165603712447555730000001854139382508018100_" class="st14" d="M1894.8,178c0,0,11.9,160.2-153.4,171.1
				c-6.6,0.4-24.3-0.1-34.9-1.2C1566.3,333.6,1566.3,178,1566.3,178l-25.8,4.8c3.2,91.3,42.8,177.9,165.5,191.1
				c9.2,1,29.2,1.4,36.3,1.2c130.4-3.6,179.8-107.2,178-191.1L1894.8,178"/>
			<path id="No_Fill_00000080889354355764048930000012640833170496056759_" class="st15" d="M1894.6,177.5l1.1-0.1
				c0,0,0.2,2.6,0.2,7.1c0,15.6-2.3,54.4-22.8,90.7c-20.5,36.2-59.3,69.8-131.9,74.6c-1.6,0.1-3.8,0.2-6.3,0.2
				c-8.3,0-20.6-0.5-28.8-1.3c-70.5-7.2-105.9-50.1-123.5-91c-17.6-40.9-17.6-80-17.6-80.1h1.1l0.2,1.1l-25.8,4.8l-0.2-1.1l1.1,0
				c1.6,45.5,12.2,89.8,37.7,124.2c25.5,34.5,65.7,59.3,126.8,65.8c7.6,0.8,22.7,1.2,31.7,1.2c1.8,0,3.3,0,4.5,0
				c63.8-1.8,107.9-27.5,136.2-63.1c28.3-35.6,40.7-81.2,40.7-122.5c0-1.5,0-2.9,0-4.4l1.1,0l-0.3,1.1l-25.6-6L1894.6,177.5l1.1-0.1
				L1894.6,177.5l0.3-1.1l25.6,6c0.5,0.1,0.9,0.6,0.9,1.1c0,1.5,0,2.9,0,4.4c0,41.8-12.5,87.8-41.2,123.9
				c-28.7,36.1-73.6,62.2-137.9,63.9c-1.2,0-2.7,0-4.5,0c-9,0-24.2-0.4-31.9-1.2c-61.6-6.6-102.6-31.7-128.4-66.7
				c-25.8-35-36.6-79.7-38.1-125.5c0-0.5,0.4-1,0.9-1.1l25.8-4.8l0.9,0.2l0.4,0.9c0,0,0,2.4,0.3,6.6c1,14.9,5.3,52.4,24.5,87.7
				c19.3,35.3,53.4,68.2,114.3,74.5c8.1,0.8,20.4,1.3,28.6,1.3c2.5,0,4.7,0,6.2-0.1c71.9-4.8,109.9-37.8,130.1-73.4
				c20.2-35.7,22.5-74.2,22.5-89.6c0-4.4-0.2-6.9-0.2-6.9l0.4-0.9l1-0.2L1894.6,177.5"/>
		</g>
		<g id="Stitch_00000106119404773493473610000010861808457544980871_">
			<path class="st16" d="M1546,184.5c1,16.3,3.8,35.8,10.4,57.2c4.2,13.8,8.5,27.7,18.6,44.2c16,26,35.3,40.5,40.4,44.2
				c13.9,10,26.2,15.2,33.1,18.1c18.6,7.7,33.8,10.3,44.5,12c12.2,2,34.8,5.5,64.2,2c30.2-3.6,51.9-12.8,59-16.1
				c9.8-4.4,23.5-10.7,38.3-23.1c17.3-14.5,26.5-29.3,33.1-40.1c13.7-22.5,19.1-42,20.7-48.2c5.1-19.7,5.7-36.9,5.2-49.2"/>
			<path class="st16" d="M1530.4,189.8c1.1,17.8,4.2,39,11.2,62.2c4.6,15,9.2,30.1,20.2,48c17.3,28.3,38.2,44,43.7,48
				c15,10.9,28.4,16.5,35.9,19.7c20.1,8.4,36.6,11.2,48.2,13.1c13.2,2.2,37.7,6,69.5,2.2c32.7-4,56.1-14,63.9-17.5
				c10.6-4.8,25.4-11.6,41.5-25.1c18.7-15.8,28.7-31.9,35.9-43.7c14.9-24.5,20.7-45.7,22.4-52.4c5.5-21.5,6.2-40.1,5.6-53.5"/>
		</g>
	</g>
	<g>
		<rect x="1700.2" y="268.6" class="st17" width="63.9" height="21.3"/>
		<path class="st18" d="M1704.1,274.8v0.6h-0.7v3.2c0,0.7,0.4,1.1,1.3,1.1c0.8,0,1.3-0.4,1.3-1.1v-3.2h-0.7v-0.6h2v0.6h-0.7v3.3
			c0,1-0.9,1.6-2,1.6c-1.1,0-2-0.5-2-1.6v-3.3h-0.7v-0.6"/>
		<rect x="1708" y="279.4" class="st18" width="0.8" height="0.7"/>
		<path class="st18" d="M1713.5,275v1.2h-0.7v-0.7c-0.4-0.1-0.6-0.2-1.1-0.2c-0.9,0-1.2,0.4-1.2,0.9c0,0.6,0.5,0.8,1.2,0.9
			c1.1,0.1,2,0.5,2,1.5c0,0.9-0.7,1.6-2,1.6c-0.6,0-1.3-0.1-1.9-0.3v-1.2h0.7v0.7c0.3,0.1,0.7,0.2,1.2,0.2c0.9,0,1.3-0.5,1.3-1
			c0-0.7-0.5-0.8-1.4-1c-1.1-0.1-1.8-0.4-1.8-1.5c0-0.8,0.6-1.5,1.9-1.5C1712.4,274.7,1712.9,274.8,1713.5,275"/>
		<rect x="1714.7" y="279.4" class="st18" width="0.8" height="0.7"/>
		<path class="st18" d="M1720.9,274.8c1.1,0,1.6,0.7,1.6,1.6c0,0.9-0.5,1.6-1.6,1.6h-1.6v1.5h0.7v0.6h-2.1v-0.6h0.7v-4.2h-0.7v-0.6
			 M1719.3,275.4v2.1h1.5c0.7,0,1-0.5,1-1.1c0-0.6-0.3-1-1-1H1719.3z"/>
		<path class="st18" d="M1727.9,277.5c0,1.5-0.9,2.7-2.5,2.7c-1.5,0-2.5-1.2-2.5-2.7c0-1.5,0.9-2.7,2.5-2.7
			C1727,274.7,1727.9,276,1727.9,277.5 M1723.8,277.5c0,1.2,0.6,2.1,1.7,2.1c1.1,0,1.7-0.9,1.7-2.1c0-1.2-0.6-2.1-1.7-2.1
			C1724.3,275.4,1723.8,276.2,1723.8,277.5"/>
		<polyline class="st18" points="1730.6,274.8 1730.6,275.4 1729.9,275.4 1729.9,279.6 1732,279.6 1732,278.7 1732.7,278.7 
			1732.7,280.1 1728.5,280.1 1728.5,279.6 1729.2,279.6 1729.2,275.4 1728.5,275.4 1728.5,274.8 		"/>
		<path class="st18" d="M1738.1,277.5c0,1.5-0.9,2.7-2.5,2.7c-1.5,0-2.5-1.2-2.5-2.7c0-1.5,0.9-2.7,2.5-2.7
			C1737.2,274.7,1738.1,276,1738.1,277.5 M1734,277.5c0,1.2,0.6,2.1,1.7,2.1c1.1,0,1.7-0.9,1.7-2.1c0-1.2-0.6-2.1-1.7-2.1
			C1734.5,275.4,1734,276.2,1734,277.5"/>
		<path class="st18" d="M1744.3,274.8v0.6h-0.6l1.5,4.2h0.5v0.6h-2v-0.6h0.6l-0.4-1.1h-2.1l-0.4,1.1h0.7v0.6h-2v-0.6h0.5l1.5-4.2
			h-0.6v-0.6 M1742.8,276l-0.7,2h1.8l-0.7-2l-0.2-0.7L1742.8,276"/>
		<path class="st18" d="M1750,275v1.2h-0.7v-0.7c-0.4-0.1-0.6-0.2-1.1-0.2c-0.9,0-1.2,0.4-1.2,0.9c0,0.6,0.5,0.8,1.2,0.9
			c1.1,0.1,2,0.5,2,1.5c0,0.9-0.7,1.6-2,1.6c-0.6,0-1.3-0.1-1.9-0.3v-1.2h0.7v0.7c0.3,0.1,0.7,0.2,1.2,0.2c0.9,0,1.3-0.5,1.3-1
			c0-0.7-0.5-0.8-1.4-1c-1.1-0.1-1.8-0.4-1.8-1.5c0-0.8,0.6-1.5,1.9-1.5C1748.8,274.7,1749.4,274.8,1750,275"/>
		<path class="st18" d="M1754.8,275v1.2h-0.7v-0.7c-0.4-0.1-0.6-0.2-1.1-0.2c-0.9,0-1.2,0.4-1.2,0.9c0,0.6,0.5,0.8,1.2,0.9
			c1.1,0.1,2,0.5,2,1.5c0,0.9-0.7,1.6-2,1.6c-0.6,0-1.3-0.1-1.9-0.3v-1.2h0.7v0.7c0.3,0.1,0.7,0.2,1.2,0.2c0.9,0,1.3-0.5,1.3-1
			c0-0.7-0.5-0.8-1.4-1c-1.1-0.1-1.8-0.4-1.8-1.5c0-0.8,0.6-1.5,1.9-1.5C1753.6,274.7,1754.2,274.8,1754.8,275"/>
		<polyline class="st18" points="1757.3,274.8 1759.3,278.7 1759.5,279.1 1759.5,278.6 1759.5,275.4 1758.9,275.4 1758.9,274.8 
			1760.9,274.8 1760.9,275.4 1760.2,275.4 1760.2,280.1 1759.3,280.1 1757.2,276.1 1757,275.6 1757,276.1 1757,279.6 1757.6,279.6 
			1757.6,280.1 1755.6,280.1 1755.6,279.6 1756.3,279.6 1756.3,275.4 1755.6,275.4 1755.6,274.8 		"/>
		<rect x="1761.6" y="279.4" class="st18" width="0.8" height="0.7"/>
		<path class="st19" d="M1722.5,282.6v0.6h-0.3v-0.4l-0.7-0.1c-0.6,0-0.7,0.3-0.7,0.6c0,0.4,0.3,0.5,0.7,0.6
			c0.6,0.1,1.1,0.3,1.1,0.9c0,0.5-0.4,0.9-1.1,0.9l-1-0.1v-0.6h0.3v0.4l0.7,0.1c0.6,0,0.8-0.3,0.8-0.6c0-0.5-0.4-0.5-0.8-0.6
			c-0.6-0.1-1-0.2-1-0.8c0-0.4,0.3-0.8,1.1-0.8L1722.5,282.6"/>
		<polyline class="st19" points="1724.1,282.5 1724.1,282.7 1723.7,282.7 1723.7,285.3 1724.1,285.3 1724.1,285.5 1723,285.5 
			1723,285.3 1723.4,285.3 1723.4,282.7 1723,282.7 1723,282.5 		"/>
		<polyline class="st19" points="1725.2,282.5 1726.6,284.8 1726.7,285.1 1726.7,284.8 1726.7,282.7 1726.3,282.7 1726.3,282.5 
			1727.4,282.5 1727.4,282.7 1727,282.7 1727,285.5 1726.6,285.5 1725.2,283 1725.1,282.8 1725.1,283.1 1725.1,285.3 1725.5,285.3 
			1725.5,285.5 1724.4,285.5 1724.4,285.3 1724.8,285.3 1724.8,282.7 1724.4,282.7 1724.4,282.5 		"/>
		<path class="st19" d="M1730.2,282.6v0.6h-0.3v-0.4l-0.7-0.1c-0.7,0-1.1,0.5-1.1,1.3c0,0.8,0.4,1.3,1.1,1.3l0.7-0.1v-0.4h0.3v0.6
			l-1,0.1c-0.9,0-1.4-0.7-1.4-1.6c0-0.8,0.5-1.6,1.4-1.6L1730.2,282.6"/>
		<polyline class="st19" points="1732.9,282.5 1732.9,283.1 1732.6,283.1 1732.6,282.7 1731.2,282.7 1731.2,283.8 1732.5,283.8 
			1732.5,284 1731.2,284 1731.2,285.3 1732.6,285.3 1732.6,284.8 1732.9,284.8 1732.9,285.5 1730.5,285.5 1730.5,285.3 
			1730.9,285.3 1730.9,282.7 1730.5,282.7 1730.5,282.5 		"/>
		<polyline class="st19" points="1735,285.5 1735,285.3 1735.6,285.3 1735.6,282.7 1734.9,283.3 1734.8,283.1 1735.6,282.5 
			1735.9,282.5 1735.9,285.3 1736.5,285.3 1736.5,285.5 		"/>
		<path class="st19" d="M1739,283.2c0,0.4-0.2,0.6-0.7,0.7c0.5,0,0.8,0.3,0.8,0.8c0,0.5-0.4,0.8-1,0.8c-0.7,0-1-0.3-1-0.8
			c0-0.5,0.3-0.8,0.8-0.8c-0.4-0.1-0.7-0.4-0.7-0.7c0-0.4,0.3-0.8,1-0.8C1738.7,282.4,1739,282.8,1739,283.2 M1737.3,284.7
			c0,0.4,0.3,0.6,0.8,0.6c0.5,0,0.8-0.3,0.8-0.6c0-0.5-0.4-0.6-0.8-0.6C1737.7,284,1737.3,284.2,1737.3,284.7 M1737.4,283.2
			c0,0.4,0.3,0.6,0.7,0.6c0.4,0,0.7-0.2,0.7-0.6c0-0.3-0.2-0.6-0.7-0.6C1737.6,282.7,1737.4,282.9,1737.4,283.2"/>
		<path class="st19" d="M1741.7,283.9c0,1-0.4,1.6-1.1,1.6l-0.9-0.2v-0.6h0.3v0.4l0.6,0.1c0.6,0,0.8-0.5,0.8-1.3
			c-0.2,0.2-0.5,0.4-0.9,0.4c-0.7,0-1-0.5-1-1c0-0.6,0.4-1,1-1C1741.3,282.4,1741.7,283,1741.7,283.9 M1739.9,283.5
			c0,0.4,0.2,0.8,0.7,0.8l0.8-0.4c0-0.7-0.3-1.1-0.8-1.1C1740.1,282.7,1739.9,283,1739.9,283.5"/>
		<path class="st19" d="M1744.3,284c0,1-0.4,1.6-1.1,1.6c-0.7,0-1.1-0.6-1.1-1.6c0-1,0.4-1.6,1.1-1.6
			C1743.9,282.4,1744.3,283,1744.3,284 M1742.5,284c0,0.8,0.2,1.3,0.8,1.3c0.5,0,0.8-0.6,0.8-1.3c0-0.8-0.2-1.3-0.8-1.3
			C1742.7,282.7,1742.5,283.2,1742.5,284"/>
		<rect x="1716.2" y="289.8" class="st17" width="32" height="16.2"/>
		<polygon class="st18" points="1729.5,301.4 1729.5,295.3 1731.4,295.3 1732.5,299.4 1733.6,295.3 1735.4,295.3 1735.4,301.4 
			1734.3,301.4 1734.3,296.6 1733.1,301.4 1731.9,301.4 1730.7,296.6 1730.7,301.4 		"/>
	</g>
</g>
<!-- <g id="Back_00000099620730984416088460000012196456812504694169_">
	<g id="Left_Sleeve_00000066487649788912452530000011596423303048312976_">
		<path id="Fill" class="st0" d="M418.6,211.9c-4.2,1.5-5.7,1.5-9.3,3.1c-8.3,3.8-17.3,9.5-22.3,12.7c-11.5,7.4-22.7,14.8-31.6,28.4
			c-4.6,7.1-6.9,13.2-9.5,21.1c-8.9,26.4-13.3,39.7-16.9,58c-11.8,60.6-30.1,87.7-51.6,190.7c-3.5,16.6-6,30-7.4,37.9
			c18.1,8,40.8,13.6,61.3,21c41.6,15,78,25.3,113.6,35.9c2.8-12.6,4.7-25.4,7.6-38c5.1-14.4,6.2-50.2,10.5-67.4
			c5.5-21.5,14.8-25,17.7-50.5c12.4-109-12.2-198.3-31.6-250.8C439,213.3,428.8,212.6,418.6,211.9z"/>
		<g>
			<defs>
				<path id="No_full" d="M418.2,211.8c-4.2,1.5-5.7,1.5-9.3,3.1c-8.3,3.8-17.3,9.5-22.3,12.7c-11.5,7.4-22.7,14.8-31.6,28.4
					c-4.6,7.1-6.9,13.2-9.5,21.1c-8.9,26.4-13.3,39.7-16.9,58c-11.8,60.6-30.1,87.7-51.6,190.7c-3.5,16.6-6,30-7.4,37.9
					c18.1,8,40.8,13.6,61.3,21c41.6,15,78,25.3,113.6,35.9c2.8-12.6,4.7-25.4,7.6-38c5.1-14.4,6.2-50.2,10.5-67.4
					c5.5-21.5,14.8-25,17.7-50.5c12.4-109-12.2-198.3-31.6-250.8C438.6,213.2,428.4,212.5,418.2,211.8z"/>
			</defs>
			<clipPath id="No_full_00000104698641399971589580000008247172798953626760_">
				<use xlink:href="#No_full"  style="overflow:visible;"/>
			</clipPath>
			<g style="opacity:0.15;clip-path:url(#No_full_00000104698641399971589580000008247172798953626760_);">
				<rect x="-344.9" y="1111.5" width="1572.2" height="11.8"/>
				<rect x="-344.9" y="1142.7" width="1572.2" height="11.8"/>
				<rect x="-345" y="1055" width="1572.2" height="11.8"/>
				<rect x="-345" y="1086.2" width="1572.2" height="11.8"/>
				<rect x="-344.6" y="1230.3" width="1572.2" height="11.8"/>
				<rect x="-344.6" y="1261.5" width="1572.2" height="11.8"/>
				<rect x="-344.7" y="1173.8" width="1572.2" height="11.8"/>
				<rect x="-344.7" y="1204.9" width="1572.2" height="11.8"/>
				<rect x="-344.6" y="877.2" width="1572.2" height="11.8"/>
				<rect x="-344.6" y="908.3" width="1572.2" height="11.8"/>
				<rect x="-344.7" y="820.6" width="1572.2" height="11.8"/>
				<rect x="-344.7" y="851.8" width="1572.2" height="11.8"/>
				<rect x="-344.3" y="995.9" width="1572.2" height="11.8"/>
				<rect x="-344.3" y="1027.1" width="1572.2" height="11.8"/>
				<rect x="-344.4" y="939.4" width="1572.2" height="11.8"/>
				<rect x="-344.4" y="967.6" width="1572.2" height="11.8"/>
				<rect x="-344.4" y="1583.2" width="1572.2" height="11.8"/>
				<rect x="-344.4" y="1614.4" width="1572.2" height="11.8"/>
				<rect x="-344.6" y="1526.7" width="1572.2" height="11.8"/>
				<rect x="-344.6" y="1557.8" width="1572.2" height="11.8"/>
				<rect x="-344.1" y="1702" width="1572.2" height="11.8"/>
				<rect x="-344.1" y="1733.2" width="1572.2" height="11.8"/>
				<rect x="-344.2" y="1645.5" width="1572.2" height="11.8"/>
				<rect x="-344.2" y="1676.6" width="1572.2" height="11.8"/>
				<rect x="-344.1" y="1348.8" width="1572.2" height="11.8"/>
				<rect x="-344.1" y="1380" width="1572.2" height="11.8"/>
				<rect x="-344.3" y="1292.3" width="1572.2" height="11.8"/>
				<rect x="-344.3" y="1323.5" width="1572.2" height="11.8"/>
				<rect x="-343.8" y="1467.6" width="1572.2" height="11.8"/>
				<rect x="-343.8" y="1498.8" width="1572.2" height="11.8"/>
				<rect x="-343.9" y="1411.1" width="1572.2" height="11.8"/>
				<rect x="-343.9" y="1439.3" width="1572.2" height="11.8"/>
				<rect x="-345.8" y="289" width="1572.2" height="11.8"/>
				<rect x="-345.8" y="320.2" width="1572.2" height="11.8"/>
				<rect x="-346" y="232.5" width="1572.2" height="11.8"/>
				<rect x="-346" y="263.7" width="1572.2" height="11.8"/>
				<rect x="-345.7" y="641.9" width="1572.2" height="11.8"/>
				<rect x="-345.7" y="673.1" width="1572.2" height="11.8"/>
				<rect x="-345.8" y="585.4" width="1572.2" height="11.8"/>
				<rect x="-345.8" y="616.6" width="1572.2" height="11.8"/>
				<rect x="-345.4" y="760.7" width="1572.2" height="11.8"/>
				<rect x="-345.4" y="791.9" width="1572.2" height="11.8"/>
				<rect x="-345.5" y="704.2" width="1572.2" height="11.8"/>
				<rect x="-345.5" y="735.3" width="1572.2" height="11.8"/>
				<rect x="-345.4" y="407.6" width="1572.2" height="11.8"/>
				<rect x="-345.4" y="438.7" width="1572.2" height="11.8"/>
				<rect x="-345.5" y="351" width="1572.2" height="11.8"/>
				<rect x="-345.5" y="382.2" width="1572.2" height="11.8"/>
				<rect x="-345.1" y="526.3" width="1572.2" height="11.8"/>
				<rect x="-345.1" y="557.5" width="1572.2" height="11.8"/>
				<rect x="-345.2" y="469.8" width="1572.2" height="11.8"/>
				<rect x="-345.2" y="498" width="1572.2" height="11.8"/>
			</g>
			
				<g id="Stitch_00000103257006710223630670000003663857665040301227_" style="clip-path:url(#No_full_00000104698641399971589580000008247172798953626760_);">
				<line class="st2" x1="279.2" y1="541.9" x2="445.4" y2="598.5"/>
				<line class="st2" x1="279.3" y1="536.1" x2="445.5" y2="592.7"/>
				<path class="st3" d="M429.9,423.2c-17.3-33.3-46.5-71.6-53.2-109.1"/>
				<path class="st3" d="M441,447.2c-19.5,8.7-61.5-41.6-73.6-53.2"/>
			</g>
		</g>
	</g>
	<g id="Right_Sleve">
		<path id="Fill_00000017482978952594492970000009983860700742608515_" class="st0" d="M1044.6,214c-0.5-1.7,19.4,4.3,34.8,14.8
			c11.3,7.7,22.7,14.8,31.6,28.4c4.6,7.1,6.9,13.2,9.5,21.1c8.9,26.4,13.3,39.7,16.9,58c11.8,60.6,30.1,87.7,51.6,190.7
			c3.5,16.6,6,30,7.4,37.9c-18.1,8-40.8,13.6-61.3,21c-41.6,15-78,25.3-113.6,35.9c-2.8-12.6-4.7-25.4-7.6-38
			c-5.1-14.4-6.2-50.2-10.5-67.4c-5.5-21.5-14.8-25-17.7-50.5c-12.4-109,12.2-198.3,31.6-250.8
			C1027.4,214.4,1034.5,214.7,1044.6,214z"/>
		<g id="Strips_Sleve">
			<defs>
				<path id="SVGID_00000159468725490871544280000002488588661824638623_" d="M1043.2,214.1c-0.5-1.7,19.4,4.3,34.8,14.8
					c11.3,7.7,22.7,14.8,31.6,28.4c4.6,7.1,6.9,13.2,9.5,21.1c8.9,26.4,13.3,39.7,16.9,58c11.8,60.6,30.1,87.7,51.6,190.7
					c3.5,16.6,6,30,7.4,37.9c-18.1,8-40.8,13.6-61.3,21c-41.6,15-78,25.3-113.6,35.9c-2.8-12.6-4.7-25.4-7.6-38
					c-5.1-14.4-6.2-50.2-10.5-67.4c-5.5-21.5-14.8-25-17.7-50.5c-12.4-109,12.2-198.3,31.6-250.8
					C1026,214.5,1033.1,214.8,1043.2,214.1z"/>
			</defs>
			<clipPath id="SVGID_00000083090243476988997100000006725638579095420844_">
				<use xlink:href="#SVGID_00000159468725490871544280000002488588661824638623_"  style="overflow:visible;"/>
			</clipPath>
			<g id="Strips" style="opacity:0.15;clip-path:url(#SVGID_00000083090243476988997100000006725638579095420844_);">
				<rect x="101.5" y="465.9" width="1572.2" height="11.8"/>
				<rect x="101.5" y="497" width="1572.2" height="11.8"/>
				<rect x="101.4" y="409.3" width="1572.2" height="11.8"/>
				<rect x="101.4" y="440.5" width="1572.2" height="11.8"/>
				<rect x="101.9" y="584.6" width="1572.2" height="11.8"/>
				<rect x="101.8" y="528.1" width="1572.2" height="11.8"/>
				<rect x="101.8" y="556.3" width="1572.2" height="11.8"/>
				<rect x="100.4" y="230.6" width="1572.2" height="11.8"/>
				<rect x="100.4" y="261.8" width="1572.2" height="11.8"/>
				<rect x="100.8" y="349.4" width="1572.2" height="11.8"/>
				<rect x="100.8" y="380.6" width="1572.2" height="11.8"/>
				<rect x="100.7" y="292.9" width="1572.2" height="11.8"/>
				<rect x="100.7" y="324" width="1572.2" height="11.8"/>
			</g>
			<g id="Stitch" style="clip-path:url(#SVGID_00000083090243476988997100000006725638579095420844_);">
				<line class="st2" x1="1021" y1="599.6" x2="1187.2" y2="543"/>
				<line class="st2" x1="1020.9" y1="593.7" x2="1187.1" y2="537.2"/>
				<path class="st3" d="M1036.5,424.3c17.3-33.3,46.5-71.6,53.2-109.1"/>
				<path class="st3" d="M1025.4,448.2c19.5,8.7,61.5-41.6,73.6-53.2"/>
			</g>
		</g>
	</g>
	<g id="Body_00000026885444826550810830000000743544314250068913_">
		<path id="nO_FILL" class="st0" d="M892.9,179.2c2.5,0.5,6.5,1.2,11.6,2.1c10.6,1.8,18.4,2.9,20,3.2c12.8,1.8,47.3,8.5,86.4,19
			c13.5,3.6,30.3,8.5,49.5,14.8c-3.4,11.2-5.8,20.3-7.4,26.3c-5.4,20.9-6,27.6-13.7,62.2c-3.5,15.8-4,17.2-5.3,24.2
			c-3.1,17.6-3.9,31.4-4.2,37.9c-0.5,11.3-0.2,19.9,0,25.3c0.4,10.7,1.2,20,2.1,27.4c-4.2,8.1-8.3,17-12.1,26.9
			c-2,5.1-3.7,10-5.3,14.8c-0.8,14.8-1.6,29.9-2.1,45.3c-0.5,13.6-0.8,26.9-1.1,40c-0.2,12.9-1.6,21.7-5.3,50.6
			c-7.8,61.9-8.9,65.8-10.5,86.4c-1.1,14.6-2.2,29.3-2.1,48.5c0.2,27.5,2.9,48.4,6.3,72.7c6.3,44.1,11.2,78.6,21.1,127.5
			c9.3,45.9,18.5,82.8,23.2,101.2c2.9,11.7,5.5,21.4,7.4,28.4c-1.2,6.1-2.2,14.8-1.1,25.3c1.1,10.3,3.9,18.6,6.3,24.2
			c10.5,75.2,21.1,150.3,31.6,225.5c-24.8,7.3-51.5,14.2-80.1,20c-20.7,4.2-73.2,14.3-159.1,19c-89.9,4.9-158.4,0.8-222.3-3.2
			c-87.7-5.5-123.1-8.3-158-14.8c-41.2-7.6-74.8-17-98-24.2c5.1-40.7,12-84,21.1-129.6c8.9-44.3,18.9-85.8,29.5-124.3
			c-0.5-10.4-0.2-23.3,2.1-37.9c2.7-16.7,7.3-30.6,11.6-41.1c-0.5-4.7-1.1-12.1-1.1-21.1c0.1-22.5,3.9-39.4,5.3-45.3
			c6.1-27.5,10.1-59.8,17.9-124.3c1.3-10.9,4.3-35.9,6.3-65.3c8.1-119.3-11.8-146.4-3.2-222.3c1-8.6,3.6-28.9-1.1-54.8
			c-4.1-23.1-12.2-40.9-17.9-51.6c0.2-14.5-0.1-29.6-1.1-45.3c-3.6-60.5-15.4-113.7-29.5-158c13.6-4.8,28-9.4,43.2-13.7
			c34.1-9.5,66.1-15.4,94.8-19c9.5,3.9,19,7.7,28.4,11.6c46.9,20.7,88.2,29,117,32.7c51.9,6.6,86.9,1,120.1-4.2
			c35.2-5.6,63.7-14.2,75.9-36.9C891.5,182.6,892.4,180.6,892.9,179.2z"/>
		<g id="Body_Elemen">
			<defs>
				<path id="SVGID_00000132058793855880043520000002412673890803388339_" d="M892.2,178.8c2.5,0.5,6.5,1.2,11.6,2.1
					c10.6,1.8,18.4,2.9,20,3.2c12.8,1.8,47.3,8.5,86.4,19c13.5,3.6,30.3,8.5,49.5,14.8c-3.4,11.2-5.8,20.3-7.4,26.3
					c-5.4,20.9-6,27.6-13.7,62.2c-3.5,15.8-4,17.2-5.3,24.2c-3.1,17.6-3.9,31.4-4.2,37.9c-0.5,11.3-0.2,19.9,0,25.3
					c0.4,10.7,1.2,20,2.1,27.4c-4.2,8.1-8.3,17-12.1,26.9c-2,5.1-3.7,10-5.3,14.8c-0.8,14.8-1.6,29.9-2.1,45.3
					c-0.5,13.6-0.8,26.9-1.1,40c-0.2,12.9-1.6,21.7-5.3,50.6c-7.8,61.9-8.9,65.8-10.5,86.4c-1.1,14.6-2.2,29.3-2.1,48.5
					c0.2,27.5,2.9,48.4,6.3,72.7c6.3,44.1,11.2,78.6,21.1,127.5c9.3,45.9,18.5,82.8,23.2,101.2c2.9,11.7,5.5,21.4,7.4,28.4
					c-1.2,6.1-2.2,14.8-1.1,25.3c1.1,10.3,3.9,18.6,6.3,24.2c10.5,75.2,21.1,150.3,31.6,225.5c-24.8,7.3-51.5,14.2-80.1,20
					c-20.7,4.2-73.2,14.3-159.1,19c-89.9,4.9-158.4,0.8-222.3-3.2c-87.7-5.5-123.1-8.3-158-14.8c-41.2-7.6-74.8-17-98-24.2
					c5.1-40.7,12-84,21.1-129.6c8.9-44.3,18.9-85.8,29.5-124.3c-0.5-10.4-0.2-23.3,2.1-37.9c2.7-16.7,7.3-30.6,11.6-41.1
					c-0.5-4.7-1.1-12.1-1.1-21.1c0.1-22.5,3.9-39.4,5.3-45.3c6.1-27.5,10.1-59.8,17.9-124.3c1.3-10.9,4.3-35.9,6.3-65.3
					c8.1-119.3-11.8-146.4-3.2-222.3c1-8.6,3.6-28.9-1.1-54.8c-4.1-23.1-12.2-40.9-17.9-51.6c0.2-14.5-0.1-29.6-1.1-45.3
					c-3.6-60.5-15.4-113.7-29.5-158c13.6-4.8,28-9.4,43.2-13.7c34.1-9.5,66.1-15.4,94.8-19c9.5,3.9,19,7.7,28.4,11.6
					c46.9,20.7,88.2,29,117,32.7c51.9,6.6,86.9,1,120.1-4.2c35.2-5.6,63.7-14.2,75.9-36.9C890.9,182.2,891.7,180.2,892.2,178.8z"/>
			</defs>
			<clipPath id="SVGID_00000181066765909810147280000002633604285364533664_">
				<use xlink:href="#SVGID_00000132058793855880043520000002412673890803388339_"  style="overflow:visible;"/>
			</clipPath>
			<g id="Stips_Body" style="opacity:0.2;clip-path:url(#SVGID_00000181066765909810147280000002633604285364533664_);">
				<rect x="-182.8" y="1346.1" class="st25" width="1572.2" height="11.8"/>
				<rect x="-182.9" y="1289.5" class="st25" width="1572.2" height="11.8"/>
				<rect x="-182.9" y="1320.7" class="st25" width="1572.2" height="11.8"/>
				<rect x="-182.5" y="1111.7" class="st25" width="1572.2" height="11.8"/>
				<rect x="-182.5" y="1142.9" class="st25" width="1572.2" height="11.8"/>
				<rect x="-182.6" y="1055.2" class="st25" width="1572.2" height="11.8"/>
				<rect x="-182.6" y="1086.3" class="st25" width="1572.2" height="11.8"/>
				<rect x="-182.1" y="1230.5" class="st25" width="1572.2" height="11.8"/>
				<rect x="-182.1" y="1261.7" class="st25" width="1572.2" height="11.8"/>
				<rect x="-182.3" y="1173.9" class="st25" width="1572.2" height="11.8"/>
				<rect x="-182.3" y="1202.1" class="st25" width="1572.2" height="11.8"/>
				<rect x="-182.3" y="1848.9" class="st25" width="1572.2" height="11.8"/>
				<rect x="-182" y="1936.6" class="st25" width="1572.2" height="11.8"/>
				<rect x="-182" y="1967.7" class="st25" width="1572.2" height="11.8"/>
				<rect x="-182.1" y="1880" class="st25" width="1572.2" height="11.8"/>
				<rect x="-182.1" y="1911.2" class="st25" width="1572.2" height="11.8"/>
				<rect x="-184.1" y="404.8" class="st25" width="1572.2" height="11.8"/>
				<rect x="-184.1" y="436" class="st25" width="1572.2" height="11.8"/>
				<rect x="-184.2" y="348.3" class="st25" width="1572.2" height="11.8"/>
				<rect x="-184.2" y="379.4" class="st25" width="1572.2" height="11.8"/>
				<rect x="-183.7" y="523.6" class="st25" width="1572.2" height="11.8"/>
				<rect x="-183.7" y="554.8" class="st25" width="1572.2" height="11.8"/>
				<rect x="-183.8" y="467.1" class="st25" width="1572.2" height="11.8"/>
				<rect x="-183.8" y="498.2" class="st25" width="1572.2" height="11.8"/>
				<rect x="-183.8" y="201.6" class="st25" width="1572.2" height="11.8"/>
				<rect x="-183.4" y="289.2" class="st25" width="1572.2" height="11.8"/>
				<rect x="-183.4" y="320.4" class="st25" width="1572.2" height="11.8"/>
				<rect x="-183.5" y="232.7" class="st25" width="1572.2" height="11.8"/>
				<rect x="-183.5" y="260.9" class="st25" width="1572.2" height="11.8"/>
				<rect x="-183.6" y="876.5" class="st25" width="1572.2" height="11.8"/>
				<rect x="-183.6" y="907.7" class="st25" width="1572.2" height="11.8"/>
				<rect x="-183.7" y="820" class="st25" width="1572.2" height="11.8"/>
				<rect x="-183.7" y="851.1" class="st25" width="1572.2" height="11.8"/>
				<rect x="-183.2" y="995.3" class="st25" width="1572.2" height="11.8"/>
				<rect x="-183.2" y="1026.4" class="st25" width="1572.2" height="11.8"/>
				<rect x="-183.4" y="938.7" class="st25" width="1572.2" height="11.8"/>
				<rect x="-183.4" y="969.9" class="st25" width="1572.2" height="11.8"/>
				<rect x="-183.3" y="642.1" class="st25" width="1572.2" height="11.8"/>
				<rect x="-183.3" y="673.3" class="st25" width="1572.2" height="11.8"/>
				<rect x="-183.4" y="585.6" class="st25" width="1572.2" height="11.8"/>
				<rect x="-183.4" y="616.7" class="st25" width="1572.2" height="11.8"/>
				<rect x="-182.9" y="760.9" class="st25" width="1572.2" height="11.8"/>
				<rect x="-182.9" y="792.1" class="st25" width="1572.2" height="11.8"/>
				<rect x="-183.1" y="704.4" class="st25" width="1572.2" height="11.8"/>
				<rect x="-183.1" y="732.5" class="st25" width="1572.2" height="11.8"/>
			</g>
			<g id="Shodow__x26__Stitch" style="clip-path:url(#SVGID_00000181066765909810147280000002633604285364533664_);">
				<path class="st2" d="M1080,1321c-21.1,6.9-51,15.6-87.5,23.2c-69.4,14.4-123.8,16.4-170.7,17.9c-48.2,1.6-83.1,0-152.8-3.2
					c-63.8-2.9-95.6-4.3-137-9.5c-40.3-5-92.9-13.9-153.8-30.6"/>
				<path class="st2" d="M1080.3,1310.6c-21.1,6.9-51,15.6-87.5,23.2c-69.4,14.4-123.8,16.4-170.7,17.9c-48.2,1.6-83.1,0-152.8-3.2
					c-63.8-2.9-95.6-4.3-137-9.5c-40.3-5-92.9-13.9-153.8-30.6"/>
				<line class="st9" x1="559.6" y1="765.9" x2="407.9" y2="1143.3"/>
				<line class="st9" x1="577.6" y1="526.9" x2="425.9" y2="904.2"/>
			</g>
		</g>
	</g>
	<g id="Collar_Back">
		<path class="st0" d="M526.1,185.9c0,0,63.5,62.7,195.7,61.9l4.8,0c131.7-0.8,196.7-64.2,196.7-64.2l-33.9-8.6
			c0,0-49.4,43.1-161.6,43.8l-4.8,0c-113.6,0.7-162.4-40.3-162.4-40.3L526.1,185.9z"/>
		<path class="st27" d="M909,183.4c-3.8,2.1-69.6,58.9-184.5,59.5l-4.2,0c-115.5,0.7-180.1-54.7-183.7-56.8 M516.6,193.1
			c0,0,73.1,65.4,197.4,66.3c142.8,0.9,213.5-69.3,213.5-69.3"/>
	</g> -->
</g>
</svg>
