<?xml version="1.0" standalone="no"?>
<!DOCTYPE svg PUBLIC "-//W3C//DTD SVG 20010904//EN"
 "http://www.w3.org/TR/2001/REC-SVG-20010904/DTD/svg10.dtd">
<svg version="1.0" xmlns="http://www.w3.org/2000/svg"
 width="133.000000pt" height="300.000000pt" viewBox="0 0 133.000000 300.000000"
 preserveAspectRatio="xMidYMid meet">
<metadata>
Created by potrace 1.10, written by Peter Selinger 2001-2011
</metadata>
<g transform="translate(0.000000,300.000000) scale(0.100000,-0.100000)"
fill="#000000" stroke="none">
<path d="M598 2853 c-22 -5 -30 -30 -18 -53 9 -16 6 -19 -18 -22 -16 -2 -27
-9 -27 -18 0 -16 37 -15 43 1 5 12 52 12 52 0 0 -5 8 -11 18 -13 14 -3 17 -14
17 -58 0 -47 3 -55 20 -57 38 -4 185 -59 201 -75 24 -24 40 -111 43 -233 1
-60 7 -139 12 -175 6 -35 8 -82 5 -105 -3 -22 -8 -94 -12 -160 -3 -66 -8 -123
-11 -127 -2 -5 -13 -8 -24 -8 -10 0 -19 -4 -19 -10 0 -5 13 -10 29 -10 28 0
30 2 38 58 11 80 6 583 -7 666 -15 96 -30 121 -87 142 -27 9 -73 26 -103 38
l-55 21 -9 63 c-8 55 -11 62 -32 62 -20 0 -22 4 -17 34 5 35 -6 46 -39 39z"/>
<path d="M530 2702 c0 -40 -22 -55 -120 -82 -101 -27 -125 -46 -139 -109 -19
-81 -33 -462 -20 -564 19 -165 32 -203 66 -190 19 8 16 23 -6 23 -29 0 -46
145 -43 372 2 215 14 350 35 399 13 30 15 32 22 14 19 -54 23 -59 18 -20 l-5
40 79 23 c43 13 90 26 104 28 22 5 26 11 28 50 1 25 -2 44 -9 44 -5 0 -10 -13
-10 -28z"/>
<path d="M351 2433 c-1 -28 3 -53 8 -55 9 -3 48 -190 57 -277 6 -50 2 -66 -24
-127 -17 -39 -36 -104 -43 -144 -12 -79 -9 -303 4 -317 5 -4 51 -10 103 -11
57 -3 92 -8 88 -14 -3 -5 3 -12 15 -15 l21 -5 -5 -492 c-3 -270 -8 -528 -11
-574 l-6 -83 -35 21 c-19 11 -43 20 -53 20 -10 0 -22 4 -25 10 -3 5 -15 10
-26 10 -15 0 -19 -7 -19 -39 0 -25 -5 -41 -15 -45 -20 -7 -19 -36 2 -52 16
-11 15 -13 -12 -19 -56 -13 -57 -14 -52 -48 3 -20 -1 -38 -10 -49 -22 -24 -8
-58 24 -58 24 0 25 3 20 34 -5 29 -3 34 10 29 12 -5 15 -2 10 9 -10 29 141
108 205 108 28 0 92 -35 133 -73 38 -35 44 -52 19 -61 -9 -3 -14 -15 -12 -28
2 -17 10 -23 28 -23 20 0 25 5 25 26 -1 18 4 25 12 22 9 -4 13 8 13 41 0 38
-3 46 -18 46 -11 0 -27 10 -38 21 -10 12 -34 28 -53 36 -44 19 -31 31 44 39
l60 7 -19 -22 c-18 -20 -18 -23 -3 -38 13 -14 19 -14 32 -3 9 7 13 21 9 32 -4
12 -1 18 8 16 21 -5 24 71 2 79 -10 4 -21 0 -28 -9 -8 -11 -21 -14 -38 -11
-15 3 -50 -3 -78 -12 -28 -9 -54 -14 -58 -10 -9 9 -15 899 -7 1053 l7 122 104
0 104 0 7 28 c5 15 8 99 8 187 0 159 0 161 -32 234 -18 40 -33 89 -33 110 0
62 49 311 61 311 4 0 10 -80 14 -177 4 -98 13 -227 20 -288 l12 -110 -4 175
c-4 214 -23 481 -33 475 -4 -3 -10 -18 -13 -35 -4 -16 -18 -48 -32 -70 -25
-40 -46 -48 -105 -41 -9 2 -6 -4 8 -14 12 -9 26 -14 31 -11 4 3 15 0 24 -7 15
-10 15 -21 7 -72 -21 -134 -21 -144 4 -200 50 -108 59 -158 51 -284 -3 -64
-10 -132 -14 -151 l-7 -35 -84 -9 c-107 -10 -157 -11 -245 -1 -108 12 -106 8
-102 209 l3 171 37 83 36 84 -15 91 c-8 51 -16 99 -18 108 -3 13 3 16 25 14
16 -1 32 -5 35 -8 9 -9 64 21 64 34 0 7 -7 8 -17 4 -82 -34 -119 -1 -161 145
l-10 35 -1 -52z m152 -2130 c29 -9 19 -21 -30 -35 -41 -12 -49 -12 -51 0 -5
20 29 54 47 46 9 -3 24 -9 34 -11z m107 2 c11 -13 8 -15 -18 -15 -24 0 -30 4
-26 15 4 8 12 15 19 15 7 0 18 -7 25 -15z"/>
<path d="M338 2225 c-5 -71 -7 -173 -7 -225 l2 -95 8 75 c5 41 8 143 7 225
l-3 150 -7 -130z"/>
</g>
</svg>
