
<?xml version="1.0" standalone="no"?>
<!DOCTYPE svg PUBLIC "-//W3C//DTD SVG 20010904//EN"
 "http://www.w3.org/TR/2001/REC-SVG-20010904/DTD/svg10.dtd">
<svg version="1.0" xmlns="http://www.w3.org/2000/svg"
 width="300.000000pt" height="172.000000pt" viewBox="0 0 300.000000 172.000000"
 preserveAspectRatio="xMidYMid meet">
<metadata>
Created by potrace 1.10, written by Peter Selinger 2001-2011
</metadata>
<g transform="translate(0.000000,172.000000) scale(0.100000,-0.100000)"
fill="#000000" stroke="none">
<path d="M490 1596 c-100 -26 -161 -57 -183 -94 -19 -34 -35 -124 -39 -220
l-3 -73 68 -23 c37 -12 73 -28 79 -34 14 -14 24 -84 39 -292 14 -201 10 -240
-63 -558 -28 -122 -49 -225 -46 -228 17 -16 188 -35 369 -41 202 -6 403 5 512
29 43 9 48 13 44 32 -3 11 -26 106 -51 211 -69 285 -77 356 -66 565 5 96 12
199 16 229 6 51 9 54 48 71 22 10 58 22 79 25 36 7 37 9 37 49 0 70 -20 206
-37 247 -20 50 -70 81 -180 108 -97 25 -93 25 -93 5 0 -9 -5 -12 -12 -8 -7 4
-8 3 -4 -5 5 -7 -9 -19 -41 -33 -69 -31 -200 -36 -279 -12 -32 10 -65 18 -71
17 -7 0 -11 3 -8 7 3 5 0 12 -6 16 -22 13 -1 -58 45 -151 29 -59 66 -114 106
-158 74 -80 66 -90 -11 -12 -61 62 -119 152 -149 233 -39 104 -34 111 60 75
30 -11 80 -24 112 -27 57 -7 170 7 198 26 12 8 11 8 -4 4 -98 -31 -245 -23
-328 19 -27 14 -50 25 -51 24 -1 0 -40 -11 -87 -23z m544 -57 c-27 -92 -92
-205 -160 -277 -35 -37 -63 -64 -64 -61 0 3 27 39 61 80 64 79 130 203 150
282 7 27 15 45 20 40 5 -5 2 -33 -7 -64z m-470 4 c40 -127 159 -307 227 -344
56 -30 214 185 259 354 10 36 17 46 29 43 140 -39 134 -35 127 -64 -20 -95
-37 -206 -32 -219 3 -8 1 -24 -6 -36 -6 -12 -12 -56 -13 -97 -2 -131 -16 -343
-26 -397 -7 -35 -7 -71 0 -110 6 -32 15 -89 22 -128 6 -38 29 -144 50 -234 21
-89 37 -167 34 -171 -3 -5 -37 -14 -75 -20 -39 -6 -70 -16 -70 -21 0 -5 11 -7
25 -4 14 3 37 8 52 11 68 15 83 14 83 -5 0 -11 -7 -22 -15 -25 -114 -44 -783
-40 -867 5 -28 15 -23 43 6 35 51 -13 132 -17 116 -7 -8 6 -27 11 -41 11 -14
0 -40 5 -56 10 l-30 11 19 77 c10 42 26 111 34 152 9 41 22 79 29 85 14 11
167 465 157 465 -4 0 -41 -101 -81 -225 -41 -123 -76 -223 -78 -222 -1 2 4 45
12 97 12 78 40 320 60 515 l5 40 -9 -34 c-5 -19 -15 -88 -22 -153 -6 -66 -15
-115 -19 -111 -7 8 -29 239 -35 368 -7 126 -25 246 -51 337 -4 13 11 22 73 42
43 14 81 25 84 26 3 0 13 -26 23 -57z m440 4 c-6 -17 -83 -47 -121 -47 -13 0
-23 -4 -23 -9 0 -10 82 4 111 20 11 6 22 9 25 7 11 -12 -85 -175 -135 -230
l-57 -62 -57 68 c-52 63 -127 190 -127 215 0 7 13 6 38 -3 57 -20 102 -27 102
-16 0 6 -11 10 -24 10 -41 0 -126 32 -126 48 0 10 5 12 18 7 53 -23 90 -34
113 -35 14 0 29 -3 32 -7 9 -8 66 -10 61 -2 -2 4 6 7 19 7 32 0 108 22 131 38
23 16 29 13 20 -9z m250 -22 c13 -13 29 -39 35 -57 12 -35 31 -189 25 -199 -2
-4 -20 -10 -39 -13 -19 -4 -35 -11 -35 -17 0 -6 -4 -7 -10 -4 -5 3 -10 1 -10
-5 0 -7 -7 -9 -17 -5 -13 4 -15 3 -8 -4 11 -11 75 6 75 20 0 3 11 4 25 1 40
-7 24 -25 -39 -43 -31 -10 -63 -23 -71 -29 -12 -10 -15 -9 -15 9 0 11 5 21 11
21 5 0 7 5 4 10 -4 6 -11 8 -16 5 -10 -7 -12 6 -3 29 3 9 11 16 18 16 16 0 86
59 86 73 0 6 -18 -6 -40 -28 -22 -21 -42 -36 -45 -33 -3 3 13 36 35 74 22 38
40 76 39 84 0 8 -11 -7 -23 -35 -13 -27 -31 -59 -40 -70 -16 -19 -17 -18 -11
25 8 57 37 200 41 200 2 0 14 -11 28 -25z m-860 -87 c9 -42 16 -92 16 -110 -1
-30 -2 -31 -12 -13 -7 11 -22 45 -35 75 -12 30 -23 47 -23 38 0 -9 18 -52 41
-95 42 -80 55 -129 41 -150 -6 -9 -23 -7 -70 10 -67 25 -88 39 -78 56 4 6 8
43 10 84 5 90 22 150 54 184 30 33 34 27 56 -79z"/>
<path d="M1071 1039 c0 -33 47 -288 48 -267 1 22 -39 281 -45 287 -2 2 -4 -7
-3 -20z"/>
<path d="M989 954 c49 -169 104 -341 111 -348 4 -4 -17 75 -48 177 -32 102
-60 189 -64 193 -4 4 -4 -6 1 -22z"/>
<path d="M550 101 c0 -10 60 -24 68 -16 8 8 0 12 -35 18 -18 4 -33 3 -33 -2z"/>
<path d="M993 102 c-18 -2 -33 -8 -33 -14 0 -6 10 -8 23 -4 12 3 39 6 60 6 20
0 37 4 37 10 0 9 -13 9 -87 2z"/>
<path d="M880 91 c0 -5 16 -9 35 -9 19 0 35 4 35 9 0 5 -16 9 -35 9 -19 0 -35
-4 -35 -9z"/>
<path d="M777 1463 c-18 -17 -5 -33 28 -33 28 0 35 4 35 20 0 15 -7 20 -28 20
-16 0 -32 -3 -35 -7z"/>
<path d="M284 1249 c-5 -9 1 -10 20 -5 14 3 26 2 26 -3 0 -5 14 -14 31 -20 39
-13 39 -13 39 0 0 5 -4 7 -10 4 -5 -3 -10 -1 -10 5 0 6 -5 8 -10 5 -6 -3 -17
1 -26 9 -18 19 -50 21 -60 5z"/>
<path d="M2424 1602 c-42 -23 -131 -42 -194 -42 -59 0 -165 24 -187 42 -29 24
-236 -28 -282 -71 -34 -32 -50 -95 -58 -227 l-6 -91 70 -21 c39 -12 75 -27 81
-34 13 -17 31 -185 39 -363 6 -157 -4 -228 -78 -534 -22 -94 -36 -168 -31
-173 5 -5 51 -16 103 -26 188 -32 772 -15 809 25 4 4 -7 67 -25 138 -84 330
-90 366 -88 555 2 207 17 370 35 382 7 4 44 18 81 29 l68 21 -6 77 c-10 112
-32 211 -52 233 -27 30 -63 46 -161 72 -82 22 -90 22 -118 8z m-358 -24 c35
-15 76 -23 144 -26 83 -4 105 -1 173 22 87 29 111 32 83 11 -10 -8 -23 -12
-27 -9 -5 3 -9 1 -9 -5 0 -12 -89 -38 -153 -44 -58 -6 -170 8 -200 25 -12 7
-28 13 -36 14 -18 3 -49 34 -34 34 6 0 32 -10 59 -22z m-41 -18 c33 -17 67
-30 77 -30 9 0 19 -4 22 -9 3 -4 17 -6 31 -3 14 2 25 0 25 -4 0 -15 94 -6 205
20 6 1 25 10 43 19 17 10 32 15 32 12 0 -3 11 2 24 10 23 15 30 15 86 -1 33
-9 62 -20 64 -23 3 -4 -2 -33 -10 -67 -18 -81 -36 -215 -38 -294 -2 -71 -26
-409 -30 -424 -1 -5 -13 61 -26 147 -14 87 -28 157 -31 157 -4 0 -5 -8 -3 -17
2 -10 24 -142 49 -293 37 -225 94 -508 121 -592 4 -13 -4 -19 -35 -28 -23 -6
-41 -15 -41 -21 0 -6 5 -7 10 -4 6 4 27 9 46 11 30 4 35 2 32 -13 -5 -27 -81
-42 -283 -54 -130 -8 -225 -8 -340 0 -195 14 -259 27 -263 57 -3 21 -2 21 49
8 55 -14 231 -35 238 -28 10 9 -9 14 -70 19 -111 8 -209 29 -209 45 0 5 14 64
30 132 17 67 30 130 30 140 0 9 6 21 14 25 7 4 46 107 86 228 40 121 75 227
78 235 3 10 2 12 -5 5 -6 -5 -43 -110 -84 -232 -40 -123 -74 -221 -76 -220 -1
2 4 41 12 88 22 126 68 549 61 556 -3 4 -6 -5 -7 -18 0 -13 -8 -85 -18 -159
l-17 -135 -7 65 c-20 194 -29 321 -24 341 3 11 1 33 -5 48 -5 14 -12 55 -14
90 -2 36 -11 90 -19 122 -22 83 -22 83 43 101 77 22 79 22 147 -12z m700 -135
c8 -39 15 -89 15 -112 0 -37 -3 -43 -26 -49 -19 -5 -23 -9 -13 -18 8 -8 13 -8
16 1 2 7 11 9 19 6 27 -10 -2 -35 -69 -57 -49 -17 -67 -19 -67 -10 0 7 8 17
17 23 10 5 14 13 9 18 -5 4 -11 2 -13 -4 -7 -20 -23 -15 -23 7 0 11 12 26 28
34 15 8 41 29 57 47 29 32 28 31 -13 -4 -23 -20 -44 -37 -46 -37 -11 0 3 151
19 213 l18 69 28 -29 c21 -21 33 -47 44 -98z m-901 46 c9 -39 16 -92 15 -118
l-1 -48 -34 70 c-19 39 -32 59 -28 45 9 -32 43 -101 60 -121 7 -8 15 -25 17
-37 2 -12 5 -24 8 -27 3 -3 4 -19 1 -36 -3 -23 -8 -29 -21 -23 -9 4 -42 16
-73 26 -55 19 -72 38 -47 54 8 5 8 9 -1 14 -12 8 1 145 21 207 9 29 42 63 60
63 4 0 15 -31 23 -69z"/>
<path d="M2412 980 c3 -8 29 -95 59 -194 29 -98 55 -174 56 -169 4 11 -103
363 -113 372 -4 3 -5 -1 -2 -9z"/>
<path d="M2523 123 c-13 -2 -23 -9 -23 -15 0 -5 7 -7 16 -4 9 3 27 6 40 6 13
0 24 5 24 10 0 10 -16 11 -57 3z"/>
<path d="M2654 1383 c-37 -77 -39 -84 -15 -48 22 33 54 105 47 105 -3 0 -17
-26 -32 -57z"/>
<path d="M1800 1290 c17 -22 37 -40 43 -40 6 0 -7 18 -28 40 -21 22 -41 40
-43 40 -2 0 11 -18 28 -40z"/>
</g>
</svg>
